<?xml version="1.0" encoding="utf-8"?>
<!-- Generator: Adobe Illustrator 20.1.0, SVG Export Plug-In . SVG Version: 6.00 Build 0)  -->
<svg version="1.1" id="Шар_1" xmlns="http://www.w3.org/2000/svg" xmlns:xlink="http://www.w3.org/1999/xlink" x="0px" y="0px"
	 viewBox="0 0 50 50" style="enable-background:new 0 0 50 50;" xml:space="preserve">
<style type="text/css">
	.st0{fill:none;}
	.st1{fill:#FFFFFF;stroke:#000000;stroke-linejoin:round;stroke-miterlimit:10;}
	.st2{fill:#010101;}
</style>
<g>
	<rect x="-16" y="-16.6" class="st0" width="83.2" height="83.2"/>
	<path class="st0" d="M48.6,49.9H2.6c-1.1,0-2-0.9-2-2V2c0-1.1,0.9-2,2-2h45.9c1.1,0,2,0.9,2,2v45.9C50.6,49,49.7,49.9,48.6,49.9z"
		/>
	<path class="st1" d="M40.3,43H11V9.7c1.6-1.6,2.4-2.4,4-4h25.2V43z"/>
	<g>
		<path class="st2" d="M32.1,37l-2.2-6.2h-8.5L19.2,37h-3.8l8.3-22.4h4L36,37H32.1z M28.9,27.6l-2.1-6.1c-0.2-0.4-0.4-1-0.6-1.9
			c-0.3-0.9-0.5-1.5-0.6-1.9c-0.3,1.2-0.7,2.6-1.2,4.1l-2,5.8H28.9z"/>
	</g>
	<polyline class="st1" points="19.4,5.7 19.4,5.7 19.4,14 11,14 11,14 	"/>
</g>
</svg>
