<?xml version="1.0" encoding="utf-8"?>
<!-- Generator: Adobe Illustrator 20.1.0, SVG Export Plug-In . SVG Version: 6.00 Build 0)  -->
<svg version="1.1" id="Шар_1" xmlns="http://www.w3.org/2000/svg" xmlns:xlink="http://www.w3.org/1999/xlink" x="0px" y="0px"
	 viewBox="0 0 50 50" style="enable-background:new 0 0 50 50;" xml:space="preserve">
<style type="text/css">
	.st0{fill:none;}
	.st1{fill:#FFCA5A;}
	.st2{fill:#FFFFFF;stroke:#000000;stroke-linejoin:round;stroke-miterlimit:10;}
	.st3{fill:#010101;}
</style>
<g>
	<rect x="-16.4" y="-16.5" class="st0" width="82.8" height="83.3"/>
	<path class="st1" d="M47.8,50.2H2.2c-1.1,0-2-0.9-2-2v-46c0-1.1,0.9-2,2-2h45.7c1.1,0,2,0.9,2,2v46C49.8,49.3,48.9,50.2,47.8,50.2z
		"/>
	<path class="st2" d="M39.6,43.3H10.5V9.9c1.6-1.6,2.4-2.4,4-4h25.1V43.3z"/>
	<g>
		<path class="st3" d="M31.5,37.2L29.3,31h-8.5l-2.2,6.2h-3.8l8.3-22.4H27l8.3,22.4H31.5z M28.3,27.8l-2.1-6.1
			c-0.2-0.4-0.4-1-0.6-1.9c-0.3-0.9-0.5-1.5-0.6-1.9c-0.3,1.3-0.7,2.6-1.2,4.1l-2,5.8H28.3z"/>
	</g>
	<polyline class="st2" points="18.8,5.9 18.8,5.9 18.8,14.2 10.5,14.2 10.5,14.2 	"/>
</g>
</svg>
