<?xml version="1.0" encoding="utf-8"?>
<!-- Generator: Adobe Illustrator 20.1.0, SVG Export Plug-In . SVG Version: 6.00 Build 0)  -->
<svg version="1.1" id="Шар_1" xmlns="http://www.w3.org/2000/svg" xmlns:xlink="http://www.w3.org/1999/xlink" x="0px" y="0px"
	 viewBox="0 0 50 50" style="enable-background:new 0 0 50 50;" xml:space="preserve">
<style type="text/css">
	.st0{fill:#4F89C7;}
	.st1{fill:#FFFFFF;}
	.st2{fill:none;}
</style>
<g>
	<g>
		<path class="st0" d="M47.9,49.9H2.1c-1.1,0-2-0.9-2-2V2.2c0-1.1,0.9-2,2-2h45.8c1.1,0,2,0.9,2,2v45.7C49.9,49,49,49.9,47.9,49.9z"
			/>
		<g>
			<rect x="17.6" y="23.6" class="st1" width="15.1" height="14.4"/>
			<g>
				<g>
					<rect x="30.3" y="10.4" class="st1" width="13" height="2.1"/>
				</g>
				<ellipse class="st1" cx="42.4" cy="11.4" rx="3.6" ry="3.6"/>
				<g>
					<rect x="7.6" y="10.3" class="st1" width="12.2" height="2.1"/>
				</g>
				<ellipse class="st1" cx="7.6" cy="11.4" rx="3.6" ry="3.6"/>
				<path class="st1" d="M35.4,20.4H14.6c-0.6,0-1-0.4-1-1v-12c0-2.2,1.8-4,4-4h14.8c2.2,0,4,1.8,4,4v12
					C36.4,19.9,36,20.4,35.4,20.4z"/>
				<g>
					<ellipse class="st0" cx="30.2" cy="11.5" rx="3.6" ry="3.6"/>
					<ellipse class="st0" cx="19.8" cy="11.5" rx="3.6" ry="3.6"/>
				</g>
			</g>
			<g>
				<path class="st1" d="M30.2,23.6H16.6c-4.6,0-8.3,3.7-8.3,8.3v0.8h3.9v-1.1c0-2.3,1.9-4.1,4.1-4.1h13.9 M34.4,27.5"/>
				<path class="st1" d="M23.3,27.5h11.1c2.3,0,4.2,1.9,4.2,4.1v1.1h3.9v-0.8c0-4.6-3.7-8.3-8.3-8.3H29L23.3,27.5z"/>
				<g>
					<g>
						<path class="st1" d="M40.4,38.4L40.4,38.4c-5.9,0-2.6,4.6-5.9,4.6v0c0-6.3,2.6-7.3,5.9-7.3h0c3.2,0,5.9,1,5.9,7.3v0
							C43.3,43,46.3,38.4,40.4,38.4z"/>
					</g>
					<rect x="37.4" y="33.1" class="st1" width="5.9" height="3.8"/>
				</g>
				<g>
					<g>
						<path class="st1" d="M10.2,38.4L10.2,38.4c-5.9,0-2.6,4.6-5.9,4.6v0c0-6.3,2.6-7.3,5.9-7.3h0c3.2,0,5.9,1,5.9,7.3v0
							C13.1,43,16.1,38.4,10.2,38.4z"/>
					</g>
					<rect x="7.2" y="33.1" class="st1" width="5.9" height="3.8"/>
				</g>
			</g>
		</g>
	</g>
	<rect x="-16.5" y="-16.3" class="st2" width="83" height="82.8"/>
</g>
</svg>
