<?xml version="1.0" encoding="utf-8"?>
<!-- Generator: Adobe Illustrator 20.1.0, SVG Export Plug-In . SVG Version: 6.00 Build 0)  -->
<svg version="1.1" id="Шар_1" xmlns="http://www.w3.org/2000/svg" xmlns:xlink="http://www.w3.org/1999/xlink" x="0px" y="0px"
	 viewBox="0 0 8.1 8" style="enable-background:new 0 0 8.1 8;" xml:space="preserve">
<style type="text/css">
	.st0{fill:#FFFFFF;}
</style>
<g>
	<path class="st0" d="M5.6,4.1l2.2-2.2c0.3-0.3,0.3-0.8,0-1.2L7.5,0.4c-0.3-0.3-0.8-0.3-1.2,0L4.1,2.6L1.9,0.4
		c-0.3-0.3-0.8-0.3-1.2,0L0.4,0.7C0.1,1,0.1,1.5,0.4,1.9l2.2,2.2L0.4,6.3c-0.3,0.3-0.3,0.8,0,1.2l0.3,0.3c0.3,0.3,0.8,0.3,1.2,0
		l2.2-2.2l2.2,2.2c0.3,0.3,0.8,0.3,1.2,0l0.3-0.3c0.3-0.3,0.3-0.8,0-1.2L5.6,4.1z"/>
</g>
</svg>
