<?xml version="1.0" encoding="utf-8"?>
<!-- Generator: Adobe Illustrator 20.1.0, SVG Export Plug-In . SVG Version: 6.00 Build 0)  -->
<svg version="1.1" id="Шар_1" xmlns="http://www.w3.org/2000/svg" xmlns:xlink="http://www.w3.org/1999/xlink" x="0px" y="0px"
	 viewBox="0 0 9.9 12.7" style="enable-background:new 0 0 9.9 12.7;" xml:space="preserve">
<style type="text/css">
	.st0{fill:#FFFFFF;}
</style>
<path class="st0" d="M6.8,0H0v12.7h9.9V3.1L6.8,0z M2.3,3h2.1c0.1,0,0.2,0.1,0.2,0.2S4.5,3.4,4.4,3.4H2.3c-0.1,0-0.2-0.1-0.2-0.2
	S2.2,3,2.3,3z M7.6,10.2H2.3c-0.1,0-0.2-0.1-0.2-0.2s0.1-0.2,0.2-0.2h5.3c0.1,0,0.2,0.1,0.2,0.2S7.7,10.2,7.6,10.2z M7.6,8.5H2.3
	c-0.1,0-0.2-0.1-0.2-0.2s0.1-0.2,0.2-0.2h5.3c0.1,0,0.2,0.1,0.2,0.2S7.7,8.5,7.6,8.5z M7.6,6.8H2.3c-0.1,0-0.2-0.1-0.2-0.2
	s0.1-0.2,0.2-0.2h5.3c0.1,0,0.2,0.1,0.2,0.2S7.7,6.8,7.6,6.8z M7.6,5.1H2.3C2.2,5.1,2.1,5,2.1,4.9s0.1-0.2,0.2-0.2h5.3
	c0.1,0,0.2,0.1,0.2,0.2S7.7,5.1,7.6,5.1z M6.5,3.4v-3l3,3H6.5z"/>
</svg>
