<?xml version="1.0" encoding="utf-8"?>
<!-- Generator: Adobe Illustrator 20.1.0, SVG Export Plug-In . SVG Version: 6.00 Build 0)  -->
<svg version="1.1" id="Шар_1" xmlns="http://www.w3.org/2000/svg" xmlns:xlink="http://www.w3.org/1999/xlink" x="0px" y="0px"
	 viewBox="0 0 22 21.8" style="enable-background:new 0 0 22 21.8;" xml:space="preserve">
<style type="text/css">
	.st0{fill:#D9D9D8;}
	.st1{fill:#FFFFFF;}
	.st2{fill:#4D4D4D;}
	.st3{fill:#CCCCCC;}
	.st4{fill:#FFFFFF;stroke:#4D4D4D;stroke-linejoin:round;stroke-miterlimit:10;}
</style>
<g>
	<path class="st0" d="M20,22H2c-1.1,0-2-0.9-2-2V2c0-1.1,0.9-2,2-2h18c1.1,0,2,0.9,2,2v18C22,21.1,21.1,22,20,22z"/>
	<g>
		<g>
			<g>
				<path class="st1" d="M4.4,18.1c-0.1,0-0.3-0.1-0.4-0.1c-0.1-0.1-0.2-0.3-0.1-0.5l1.2-3.2c0-0.1,0.1-0.1,0.1-0.2l9.3-9.3
					c0.1-0.1,0.2-0.1,0.4-0.1l0,0c0.1,0,0.3,0.1,0.4,0.1l2,2c0.2,0.2,0.2,0.5,0,0.7L8,16.7c0,0-0.1,0.1-0.2,0.1l-3.2,1.2
					C4.5,18.1,4.5,18.1,4.4,18.1z"/>
				<path class="st2" d="M15,5l2,2l-9.3,9.3l-3.2,1.2l1.2-3.2L15,5 M15,4c-0.3,0-0.5,0.1-0.7,0.3l-9.3,9.3c-0.1,0.1-0.2,0.2-0.2,0.3
					l-1.2,3.2c-0.1,0.4-0.1,0.8,0.2,1.1c0.2,0.2,0.4,0.3,0.7,0.3c0.1,0,0.2,0,0.4-0.1L8,17.3c0.1-0.1,0.2-0.1,0.3-0.2l9.3-9.3
					c0.4-0.4,0.4-1,0-1.4l-2-2C15.5,4.1,15.2,4,15,4L15,4z"/>
			</g>
			<g>
				<path class="st3" d="M17,7.5c-0.1,0-0.3,0-0.4-0.1l-2-2c-0.2-0.2-0.2-0.5,0-0.7l0.5-0.5c0.3-0.3,0.7-0.4,1.1-0.4
					c0.4,0,0.8,0.2,1.1,0.4l0.6,0.6c0.6,0.6,0.6,1.5,0,2.1l-0.5,0.5C17.2,7.5,17.1,7.5,17,7.5z"/>
				<g>
					<path class="st2" d="M16.2,4.2c0.3,0,0.5,0.1,0.7,0.3l0.6,0.6c0.4,0.4,0.4,1,0,1.4L17,7l-2-2l0.5-0.5
						C15.7,4.3,15.9,4.2,16.2,4.2 M16.2,3.2c-0.5,0-1,0.2-1.4,0.6l-0.5,0.5c-0.4,0.4-0.4,1,0,1.4l2,2C16.5,7.9,16.7,8,17,8
						s0.5-0.1,0.7-0.3l0.5-0.5c0.8-0.8,0.8-2,0-2.8l-0.6-0.6C17.2,3.4,16.7,3.2,16.2,3.2L16.2,3.2z"/>
				</g>
			</g>
		</g>
		<line class="st4" x1="7.6" y1="16.4" x2="5.6" y2="14.4"/>
	</g>
</g>
</svg>
