<?xml version="1.0" encoding="utf-8"?>
<!-- Generator: Adobe Illustrator 20.1.0, SVG Export Plug-In . SVG Version: 6.00 Build 0)  -->
<svg version="1.1" id="Шар_1" xmlns="http://www.w3.org/2000/svg" xmlns:xlink="http://www.w3.org/1999/xlink" x="0px" y="0px"
	 viewBox="0 0 24 24" style="enable-background:new 0 0 24 24;" xml:space="preserve">
<style type="text/css">
	.st0{fill:none;}
	.st1{fill:#76869E;}
	.st2{fill:#FFFFFF;}
</style>
<g>
	<rect x="-2.3" y="-9" class="st0" width="28.7" height="42"/>
	<path class="st1" d="M22,24H2c-1.1,0-2-0.9-2-2V2c0-1.1,0.9-2,2-2h20c1.1,0,2,0.9,2,2v20C24,23.1,23.1,24,22,24z"/>
	<g>
		<g>
			<g>
				<path class="st2" d="M19.3,7.9l-3.2-3.2l0.8-0.8c0.7-0.7,1.8-0.7,2.5,0l0.7,0.7c0.7,0.7,0.7,1.8,0,2.5L19.3,7.9z"/>
			</g>
			<g>
				<path class="st2" d="M4.8,16.3l-1.3,3.5c-0.1,0.2,0,0.5,0.1,0.6c0.2,0.2,0.4,0.2,0.6,0.1l3.5-1.3L4.8,16.3z"/>
			</g>
			
				<rect x="5.2" y="9.8" transform="matrix(0.7071 -0.7071 0.7071 0.7071 -5.0484 12.0578)" class="st2" width="13.6" height="4.6"/>
		</g>
	</g>
</g>
</svg>
