<?xml version="1.0" encoding="utf-8"?>
<!-- Generator: Adobe Illustrator 20.1.0, SVG Export Plug-In . SVG Version: 6.00 Build 0)  -->
<svg version="1.1" id="Шар_1" xmlns="http://www.w3.org/2000/svg" xmlns:xlink="http://www.w3.org/1999/xlink" x="0px" y="0px"
	 viewBox="0 0 50 50" style="enable-background:new 0 0 50 50;" xml:space="preserve">
<style type="text/css">
	.st0{fill:#FFFFFF;}
</style>
<g>
	<path class="st0" d="M0.6,5.5c9.6-1.7,19-3.5,28.7-5.2c0,16.7,0,33.1,0,49.9c-9.6-1.8-19.1-3.5-28.7-5.2C0.6,31.8,0.6,18.8,0.6,5.5
		z M11.9,25.4c-1.8,3.6-3.5,7.1-5.5,11c1.6,0.2,2.9,0.3,4.1,0.5c1.3-3.2,2.5-6,3.9-9.5c1.5,3.7,2.7,6.7,3.9,9.8
		c1.5,0.1,3,0.3,4.9,0.4c-2.2-4.4-4.1-8.4-6.1-12.4c1.9-4,3.8-7.8,5.7-11.8c-1.8,0-3.1,0-4.4,0c-1.3,3.1-2.5,6.1-3.9,9.7
		c-1.3-3.5-2.4-6.2-3.4-8.9c-1.5,0-2.8,0-4.4,0C8.6,18.2,10.2,21.7,11.9,25.4z"/>
	<path class="st0" d="M30.6,44.2c0-1.4,0-2.6,0-3.9c1.6-0.1,3-0.2,4.5-0.2c0-1.3,0-2.5,0-4c-1.5-0.1-2.9-0.2-4.5-0.2
		c0-0.7,0-1.3,0-2.1c1.5,0,2.9,0,4.5,0c0-1.4,0-2.6,0-4.1c-1.4-0.1-2.9-0.2-4.5-0.3c0-0.7,0-1.3,0-2.1c1.5,0,2.9,0,4.5,0
		c0-1.4,0-2.6,0-4.1c-1.4-0.1-2.9-0.2-4.5-0.4c0-0.7-0.1-1.2-0.1-2.1c1.6,0,3.1,0,4.6,0c0-1.5,0-2.7,0-4.1c-1.5-0.1-3-0.2-4.5-0.4
		c0-0.7,0-1.3,0-2.1c1.5,0,3,0,4.5,0c0-1.4,0-2.6,0-4.1c-1.5-0.1-2.9-0.3-4.5-0.4c0-1.3,0-2.5,0-3.5c6.5,0,12.9,0,19.4,0
		c0,12.6,0,24.7-0.1,36.9c0,0.4-0.8,1.1-1.2,1.1C42.7,44.3,36.8,44.2,30.6,44.2z M37.7,14c2.5,0,4.9,0,7.4,0c0-1.3,0-2.6,0-3.9
		c-2.6,0-4.9,0-7.4,0C37.7,11.5,37.7,12.7,37.7,14z M45.1,16.6c-2.6,0-4.9,0-7.3,0c0,1.4,0,2.6,0,3.9c2.5,0,4.8,0,7.3,0
		C45.1,19.2,45.1,18,45.1,16.6z M37.7,27c2.6,0,4.9,0,7.4,0c0-1.3,0-2.6,0-3.9c-2.6,0-4.9,0-7.4,0C37.7,24.5,37.7,25.7,37.7,27z
		 M37.7,33.5c2.6,0,4.9,0,7.4,0c0-1.3,0-2.5,0-3.9c-2.5,0-4.9,0-7.4,0C37.7,31,37.7,32.2,37.7,33.5z M45.1,40.1c0-1.4,0-2.6,0-3.9
		c-2.6,0-4.9,0-7.3,0c0,1.4,0,2.6,0,3.9C40.3,40.1,42.6,40.1,45.1,40.1z"/>
</g>
</svg>
