<?xml version="1.0" encoding="utf-8"?>
<!-- Generator: Adobe Illustrator 20.1.0, SVG Export Plug-In . SVG Version: 6.00 Build 0)  -->
<svg version="1.1" id="Шар_1" xmlns="http://www.w3.org/2000/svg" xmlns:xlink="http://www.w3.org/1999/xlink" x="0px" y="0px"
	 viewBox="0 0 11.1 10.2" style="enable-background:new 0 0 11.1 10.2;" xml:space="preserve">
<style type="text/css">
	.st0{fill:#FFFFFF;}
</style>
<g>
	<g>
		<path class="st0" d="M10.8,7.3c-0.1-0.1-0.3-0.2-0.5-0.2H7.2L6.3,8C6,8.2,5.7,8.4,5.4,8.4S4.7,8.3,4.5,8L3.6,7.1H0.5
			C0.3,7.1,0.2,7.2,0,7.3c-0.1,0.1-0.2,0.3-0.2,0.4v2.1c0,0.2,0.1,0.3,0.2,0.4s0.3,0.2,0.5,0.2h9.9c0.2,0,0.3-0.1,0.5-0.2
			c0.1-0.1,0.2-0.3,0.2-0.4V7.7C11,7.6,11,7.5,10.8,7.3z M8.3,9.6C8.2,9.7,8.1,9.7,8,9.7s-0.2,0-0.3-0.1C7.6,9.5,7.6,9.4,7.6,9.3
			c0-0.1,0-0.2,0.1-0.3C7.8,8.9,7.9,8.9,8,8.9s0.2,0,0.3,0.1c0.1,0.1,0.1,0.2,0.1,0.3S8.4,9.5,8.3,9.6z M10,9.6
			C9.9,9.7,9.8,9.7,9.7,9.7c-0.1,0-0.2,0-0.3-0.1S9.3,9.4,9.3,9.3c0-0.1,0-0.2,0.1-0.3c0.1-0.1,0.2-0.1,0.3-0.1c0.1,0,0.2,0,0.3,0.1
			s0.1,0.2,0.1,0.3C10.2,9.4,10.1,9.5,10,9.6z"/>
		<path class="st0" d="M5.1,7.4c0.1,0.1,0.2,0.1,0.3,0.1c0.1,0,0.2,0,0.3-0.1l3-3c0.1-0.1,0.2-0.3,0.1-0.5S8.6,3.6,8.4,3.6H6.7v-3
			c0-0.1,0-0.2-0.1-0.3C6.5,0.2,6.4,0.2,6.3,0.2H4.6c-0.1,0-0.2,0-0.3,0.1S4.2,0.5,4.2,0.6v3H2.5c-0.2,0-0.3,0.1-0.4,0.3
			C2,4.1,2.1,4.2,2.2,4.4L5.1,7.4z"/>
	</g>
</g>
</svg>
