<?xml version="1.0" encoding="utf-8"?>
<!-- Generator: Adobe Illustrator 20.1.0, SVG Export Plug-In . SVG Version: 6.00 Build 0)  -->
<svg version="1.1" id="Шар_1" xmlns="http://www.w3.org/2000/svg" xmlns:xlink="http://www.w3.org/1999/xlink" x="0px" y="0px"
	 viewBox="0 0 23.3 23.6" style="enable-background:new 0 0 23.3 23.6;" xml:space="preserve">
<style type="text/css">
	.st0{fill:#495A93;}
</style>
<path class="st0" d="M20.3,0H3.2C1.5,0,0,1.4,0,3.2v17.1c0,1.7,1.4,3.2,3.2,3.2h8.4v-8.4H9.4c-0.3,0-0.5-0.2-0.5-0.5v-2.7
	c0-0.3,0.2-0.5,0.5-0.5h2.2V8.8c0-3,1.8-4.7,4.5-4.7h2.2c0.3,0,0.5,0.2,0.5,0.5v2.3c0,0.3-0.2,0.5-0.5,0.5h-1.4
	c-1.5,0-1.8,0.7-1.8,1.7v2.3h3.2c0.3,0,0.5,0.3,0.5,0.6l-0.3,2.7c0,0.3-0.2,0.5-0.5,0.5h-2.9v8.4h5c1.7,0,3.2-1.4,3.2-3.2V3.3
	C23.4,1.4,22,0,20.3,0z"/>
</svg>
