<?xml version="1.0" encoding="utf-8"?>
<!-- Generator: Adobe Illustrator 20.1.0, SVG Export Plug-In . SVG Version: 6.00 Build 0)  -->
<svg version="1.1" id="Шар_1" xmlns="http://www.w3.org/2000/svg" xmlns:xlink="http://www.w3.org/1999/xlink" x="0px" y="0px"
	 viewBox="0 0 23.5 23.5" style="enable-background:new 0 0 23.5 23.5;" xml:space="preserve">
<style type="text/css">
	.st0{fill:url(#XMLID_2_);}
	.st1{fill:url(#XMLID_3_);}
	.st2{fill:url(#XMLID_4_);}
</style>
<g id="XMLID_13_">
	
		<linearGradient id="XMLID_2_" gradientUnits="userSpaceOnUse" x1="11.75" y1="261.28" x2="11.75" y2="237.9555" gradientTransform="matrix(1 0 0 1 0 -237.78)">
		<stop  offset="0" style="stop-color:#E29D3D"/>
		<stop  offset="0.3" style="stop-color:#C74E4F"/>
		<stop  offset="0.6" style="stop-color:#C21F77"/>
		<stop  offset="1" style="stop-color:#6B489D"/>
	</linearGradient>
	<path id="XMLID_17_" class="st0" d="M16.5,0H7C3.1,0,0,3.2,0,7v9.5c0,3.9,3.2,7,7,7h9.5c3.9,0,7-3.2,7-7V7C23.5,3.1,20.3,0,16.5,0z
		 M21.1,16.5c0,2.6-2.1,4.7-4.7,4.7H6.9c-2.6,0-4.7-2.1-4.7-4.7V7c0-2.6,2.1-4.7,4.7-4.7h9.5c2.6,0,4.7,2.1,4.7,4.7V16.5L21.1,16.5z
		"/>
	
		<linearGradient id="XMLID_3_" gradientUnits="userSpaceOnUse" x1="11.7" y1="261.2604" x2="11.7" y2="237.9359" gradientTransform="matrix(1 0 0 1 0 -237.78)">
		<stop  offset="0" style="stop-color:#E29D3D"/>
		<stop  offset="0.3" style="stop-color:#C74E4F"/>
		<stop  offset="0.6" style="stop-color:#C21F77"/>
		<stop  offset="1" style="stop-color:#6B489D"/>
	</linearGradient>
	<path id="XMLID_81_" class="st1" d="M11.7,5.7c-3.4,0-6.1,2.7-6.1,6.1s2.7,6.1,6.1,6.1s6.1-2.7,6.1-6.1C17.8,8.4,15.1,5.7,11.7,5.7
		z M11.7,15.5c-2.1,0-3.7-1.7-3.7-3.7s1.7-3.7,3.7-3.7c2.1,0,3.7,1.7,3.7,3.7S13.8,15.5,11.7,15.5z"/>
	
		<linearGradient id="XMLID_4_" gradientUnits="userSpaceOnUse" x1="17.8" y1="261.2604" x2="17.8" y2="237.9359" gradientTransform="matrix(1 0 0 1 0 -237.78)">
		<stop  offset="0" style="stop-color:#E29D3D"/>
		<stop  offset="0.3" style="stop-color:#C74E4F"/>
		<stop  offset="0.6" style="stop-color:#C21F77"/>
		<stop  offset="1" style="stop-color:#6B489D"/>
	</linearGradient>
	<circle id="XMLID_83_" class="st2" cx="17.8" cy="5.7" r="1.5"/>
</g>
</svg>
