<?xml version="1.0" encoding="utf-8"?>
<!-- Generator: Adobe Illustrator 20.1.0, SVG Export Plug-In . SVG Version: 6.00 Build 0)  -->
<svg version="1.1" id="Шар_1" xmlns="http://www.w3.org/2000/svg" xmlns:xlink="http://www.w3.org/1999/xlink" x="0px" y="0px"
	 viewBox="0 0 11.6 20.8" style="enable-background:new 0 0 11.6 20.8;" xml:space="preserve">
<style type="text/css">
	.st0{fill:#60A745;}
</style>
<g>
	<path class="st0" d="M11.6,5.8C11.6-0.1,9,0,5.8,0C2.6,0,0-0.1,0,5.8c0,2.5,1.6,4,3.8,4.6v3.1L5,14.3l-1.2,1.6l1,1.6l-1,1.5
		c0,1.1,2,2,2,2s2-0.9,2-2v-8.6C10.1,9.9,11.6,8.3,11.6,5.8z M5.8,5.8c-1.2,0-2.2-1-2.2-2.2s1-2.2,2.2-2.2S8,2.4,8,3.6
		C8,4.9,7,5.8,5.8,5.8z"/>
</g>
</svg>
