<?xml version="1.0" encoding="utf-8"?>
<!-- Generator: Adobe Illustrator 20.1.0, SVG Export Plug-In . SVG Version: 6.00 Build 0)  -->
<svg version="1.1" id="Шар_1" xmlns="http://www.w3.org/2000/svg" xmlns:xlink="http://www.w3.org/1999/xlink" x="0px" y="0px"
	 viewBox="0 0 24 24" style="enable-background:new 0 0 24 24;" xml:space="preserve">
<style type="text/css">
	.st0{fill:#72A742;}
	.st1{fill:#FFFFFF;}
</style>
<g>
	<path class="st0" d="M22,24H2c-1.1,0-2-0.9-2-2V2c0-1.1,0.9-2,2-2h20c1.1,0,2,0.9,2,2v20C24,23.1,23.1,24,22,24z"/>
	<path class="st1" d="M17.8,7.3c0-5.9-2.6-5.8-5.8-5.8S6.2,1.4,6.2,7.3c0,2.5,1.6,4,3.8,4.6V15l1.2,0.8L10,17.4l1,1.6l-1,1.5
		c0,1.1,2,2,2,2s2-0.9,2-2v-8.6C16.3,11.3,17.8,9.8,17.8,7.3z M12,7.3c-1.2,0-2.2-1-2.2-2.2s1-2.2,2.2-2.2s2.2,1,2.2,2.2
		S13.2,7.3,12,7.3z"/>
</g>
</svg>
