<?xml version="1.0" encoding="utf-8"?>
<!-- Generator: Adobe Illustrator 20.1.0, SVG Export Plug-In . SVG Version: 6.00 Build 0)  -->
<svg version="1.1" id="Шар_1" xmlns="http://www.w3.org/2000/svg" xmlns:xlink="http://www.w3.org/1999/xlink" x="0px" y="0px"
	 viewBox="0 0 18 17.9" style="enable-background:new 0 0 18 17.9;" xml:space="preserve">
<style type="text/css">
	.st0{fill:#1173BB;}
</style>
<g>
	<path class="st0" d="M17.1,10.9l-2.3-2.3c-0.6-0.6-1.4-0.9-2.3-0.9s-1.7,0.3-2.3,1l-1-1c0.6-0.6,1-1.4,1-2.3S9.9,3.8,9.3,3.2L7,0.9
		C6.4,0.3,5.6,0,4.7,0S3.1,0.3,2.5,0.9L0.9,2.5C0.3,3.1,0,3.9,0,4.7C0,5.6,0.3,6.3,0.9,7l2.3,2.3c0.6,0.6,1.4,0.9,2.3,0.9
		s1.7-0.3,2.3-1l1,1c-0.6,0.6-1,1.4-1,2.3s0.3,1.6,0.9,2.2L11,17c0.6,0.6,1.4,0.9,2.3,0.9s1.6-0.3,2.2-0.9l1.6-1.6
		c0.6-0.6,0.9-1.4,0.9-2.2C18,12.3,17.7,11.5,17.1,10.9z M7.8,6.2c0,0-0.1-0.1-0.2-0.2S7.4,5.8,7.4,5.8S7.3,5.7,7.2,5.6
		S7,5.5,6.9,5.5c-0.1,0-0.2,0-0.3,0c-0.3,0-0.5,0.1-0.8,0.3C5.5,6,5.5,6.3,5.5,6.6c0,0.1,0,0.2,0,0.3s0.1,0.2,0.1,0.3
		c0.1,0.1,0.1,0.2,0.2,0.2c0,0,0.1,0.1,0.2,0.2s0.2,0.2,0.2,0.2C6,8,5.7,8.1,5.4,8.1S4.8,8,4.6,7.8L2.3,5.5C2.1,5.3,2,5,2,4.7
		S2.1,4.2,2.3,4l1.6-1.6c0.2-0.2,0.5-0.3,0.8-0.3s0.5,0.1,0.8,0.3l2.3,2.3C8,4.9,8.1,5.2,8.1,5.5C8.1,5.7,8,5.9,7.8,6.2z M15.6,13.9
		L14,15.5c-0.2,0.2-0.5,0.3-0.8,0.3s-0.6-0.1-0.8-0.3l-2.3-2.3c-0.2-0.2-0.3-0.5-0.3-0.8s0.1-0.6,0.4-0.8c0,0,0.1,0.1,0.2,0.2
		s0.2,0.2,0.2,0.2s0.1,0.1,0.2,0.2s0.2,0.1,0.3,0.1s0.2,0,0.3,0c0.3,0,0.5-0.1,0.8-0.3c0.2-0.2,0.3-0.5,0.3-0.8c0-0.1,0-0.2,0-0.3
		s-0.1-0.2-0.1-0.3c-0.1-0.1-0.1-0.2-0.2-0.2c0,0-0.1-0.1-0.2-0.2S11.8,10,11.8,10c0.2-0.2,0.5-0.4,0.8-0.4s0.5,0.1,0.8,0.3l2.3,2.3
		c0.2,0.2,0.3,0.5,0.3,0.8C15.9,13.4,15.8,13.7,15.6,13.9z"/>
</g>
</svg>
