<?xml version="1.0" encoding="utf-8"?>
<!-- Generator: Adobe Illustrator 20.1.0, SVG Export Plug-In . SVG Version: 6.00 Build 0)  -->
<svg version="1.1" id="Шар_1" xmlns="http://www.w3.org/2000/svg" xmlns:xlink="http://www.w3.org/1999/xlink" x="0px" y="0px"
	 viewBox="0 0 50 50" style="enable-background:new 0 0 50 50;" xml:space="preserve">
<style type="text/css">
	.st0{fill:#4F89C7;}
	.st1{fill:#FFFFFF;}
</style>
<g>
	<path class="st0" d="M48,50H2c-1.1,0-2-0.9-2-2V2c0-1.1,0.9-2,2-2h46c1.1,0,2,0.9,2,2v46C50,49.1,49.1,50,48,50z"/>
	<g>
		<path class="st1" d="M20,24c-0.6,0.5-1.5,0.5-2-0.1l-6.5-6.5c-0.6-0.6-0.6-1.6,0-2.2l4.1-4.1c0.6-0.6,1.6-0.6,2.2,0l6.5,6.5
			c0.6,0.6,0.6,1.4,0.1,2l2.2,2.2c1.7-1.8,1.6-4.6-0.1-6.4L20,9.1c-1.8-1.8-4.7-1.8-6.5,0l-4.1,4.1c-1.8,1.8-1.8,4.7,0,6.5l6.5,6.5
			c1.8,1.8,4.6,1.8,6.4,0.1L20,24z"/>
		<path class="st1" d="M41.3,30.3l-6.5-6.5c-1.8-1.8-4.6-1.8-6.4-0.1l2.2,2.2c0.6-0.5,1.5-0.5,2,0.1l6.5,6.5c0.6,0.6,0.6,1.6,0,2.2
			L35,38.8c-0.6,0.6-1.6,0.6-2.2,0l-6.5-6.5c-0.6-0.6-0.6-1.4-0.1-2l-2.2-2.2c-1.7,1.8-1.6,4.6,0.1,6.4l6.5,6.5
			c1.8,1.8,4.7,1.8,6.5,0l4.1-4.1C43.1,35.1,43.1,32.1,41.3,30.3z"/>
		<path class="st1" d="M18.7,20.6c-0.6-0.6-0.6-1.6,0-2.2c0.6-0.6,1.6-0.6,2.2,0l11,11c0.6,0.6,0.6,1.6,0,2.2s-1.6,0.6-2.2,0
			L18.7,20.6z"/>
	</g>
</g>
</svg>
