<?xml version="1.0" encoding="utf-8"?>
<!-- Generator: Adobe Illustrator 20.1.0, SVG Export Plug-In . SVG Version: 6.00 Build 0)  -->
<svg version="1.1" id="Шар_1" xmlns="http://www.w3.org/2000/svg" xmlns:xlink="http://www.w3.org/1999/xlink" x="0px" y="0px"
	 viewBox="0 0 50 50" style="enable-background:new 0 0 50 50;" xml:space="preserve">
<style type="text/css">
	.st0{fill:#DBE0E7;}
	.st1{fill:#333333;}
	.st2{fill:none;}
</style>
<g>
	<g>
		<path class="st0" d="M48.6,50.2H2.2c-1.1,0-2-0.9-2-2V1.7c0-1.1,0.9-2,2-2h46.5c1.1,0,2,0.9,2,2v46.5
			C50.6,49.3,49.7,50.2,48.6,50.2z"/>
		<g>
			<path class="st1" d="M17,29.2c0-1.1,0-12.6,0-18.4c0-0.3,0-0.6,0-0.9c0.1-1.3,1.1-2.2,2.3-2.1c1.2,0.1,1.9,1,1.9,2.4
				c0,3.5,0,7.1,0,10.6c0,2.5,2.4,2.8,2.4,0s0-8.7,0-13.1c0-1.4,0.3-2.5,1.5-3.2c0.3,0,0.6,0,0.9,0c1.2,0.6,1.5,1.6,1.5,3.1
				c-0.1,4.4,0,10.8,0,13.2c0,1.7,2.2,1.6,2.2-1.3s0-7.6,0-11.6c0-1.3,0.7-2.2,1.7-2.4c1-0.2,1.9,0.4,2.2,1.4
				c0.1,0.4,0.2,0.9,0.2,1.4c0,4.5,0,11.5,0,13.4s2.3,1.5,2.3-0.1s0-6.2,0-9.3c0-1.4,0.9-2.3,2-2.3c1.2,0,2,0.9,2,2.3
				c0,7.2,0.1,14.5,0,21.7c-0.1,4.8-2.9,8.7-7.2,9.7c0,0-8.5,0-8.8,0c-4.1-0.4-6.7-1-9.2-4.2c-0.9-1.2-1.7-2.4-2.6-3.6
				c-1.8-2.6-3.7-5.1-5.4-7.7c-1-1.4-1.4-3.8-0.2-4.7c1.3-0.9,3.1-0.5,4.3,0.8c0.5,0.6,0.9,1.2,1.4,1.8c0.6,0.8,2.3,3.1,2.9,3.9
				C16.1,31.1,17,30.2,17,29.2z"/>
		</g>
	</g>
	<rect x="-16.7" y="-17.1" class="st2" width="84.1" height="84.1"/>
</g>
</svg>
