<?xml version="1.0" encoding="utf-8"?>
<!-- Generator: Adobe Illustrator 20.1.0, SVG Export Plug-In . SVG Version: 6.00 Build 0)  -->
<svg version="1.1" id="Шар_1" xmlns="http://www.w3.org/2000/svg" xmlns:xlink="http://www.w3.org/1999/xlink" x="0px" y="0px"
	 viewBox="0 0 50 50" style="enable-background:new 0 0 50 50;" xml:space="preserve">
<style type="text/css">
	.st0{fill:#4F89C7;}
	.st1{fill:#FFFFFF;}
	.st2{fill:none;}
</style>
<g>
	<g>
		<path class="st0" d="M48,50H2.2c-1.1,0-2-0.9-2-2V2.2c0-1.1,0.9-2,2-2H48c1.1,0,2,0.9,2,2V48C50,49.2,49.1,50,48,50z"/>
		<g>
			<path class="st1" d="M16.8,29.3c0-1,0-12.5,0-18.2c0-0.3,0-0.6,0-0.9c0.1-1.3,1.1-2.2,2.3-2.1c1.1,0.1,1.9,1,1.9,2.3
				c0,3.5,0,7,0,10.5c0,2.5,2.4,2.8,2.4,0s0-8.6,0-13c0-1.4,0.3-2.5,1.4-3.1c0.3,0,0.6,0,0.9,0c1.2,0.6,1.5,1.6,1.5,3.1
				c-0.1,4.3,0,10.6,0,13.1c0,1.6,2.2,1.5,2.2-1.3s0-7.5,0-11.5c0-1.2,0.7-2.2,1.6-2.3c0.9-0.2,1.9,0.4,2.2,1.4
				c0.1,0.4,0.2,0.9,0.2,1.4c0,4.4,0,11.3,0,13.2s2.3,1.5,2.3-0.1s0-6.1,0-9.2c0-1.3,0.9-2.2,2-2.2c1.1,0,2,0.9,2,2.2
				c0,7.1,0.1,14.3,0,21.4c-0.1,4.8-2.9,8.6-7.1,9.6c0,0-8.4,0-8.7,0c-4-0.4-6.7-1-9.1-4.1c-0.9-1.2-1.7-2.4-2.6-3.6
				c-1.8-2.5-3.6-5.1-5.4-7.7c-1-1.4-1.4-3.8-0.2-4.6c1.3-0.9,3.1-0.5,4.2,0.8c0.5,0.6,0.9,1.2,1.4,1.8c0.6,0.8,2.2,3.1,2.9,3.9
				C16,31.2,16.8,30.3,16.8,29.3z"/>
		</g>
	</g>
	<rect x="-16.4" y="-16.4" class="st2" width="83" height="83.1"/>
</g>
</svg>
