<?xml version="1.0" encoding="utf-8"?>
<!-- Generator: Adobe Illustrator 20.1.0, SVG Export Plug-In . SVG Version: 6.00 Build 0)  -->
<svg version="1.1" id="Шар_1" xmlns="http://www.w3.org/2000/svg" xmlns:xlink="http://www.w3.org/1999/xlink" x="0px" y="0px"
	 viewBox="0 0 50 50" style="enable-background:new 0 0 50 50;" xml:space="preserve">
<style type="text/css">
	.st0{fill:none;}
	.st1{fill:#F078AF;}
	.st2{fill:#FFFFFF;stroke:#000000;stroke-linejoin:round;stroke-miterlimit:10;}
	.st3{fill:#FFFFFF;stroke:#010101;stroke-width:2;stroke-linejoin:round;stroke-miterlimit:10;}
</style>
<g>
	<rect x="-16.5" y="-17" class="st0" width="83.2" height="83.7"/>
	<g>
		<path class="st1" d="M48,49.9H2.1c-1.1,0-2-0.9-2-2V1.7c0-1.1,0.9-2,2-2H48c1.1,0,2,0.9,2,2v46.2C50,49,49.1,49.9,48,49.9z"/>
		<g>
			<path class="st2" d="M42.8,30.1c0,1.9-2.3,4.2-4.2,4.2H22v10.3l-8.5-10.3h-1.8c-1.9,0-4.2-1.3-4.2-3.2V12.5
				c0-1.9,2.4-3.3,4.2-3.3h26.9c1.9,0,4.2,2.3,4.2,4.2V30.1z"/>
			<line class="st3" x1="13" y1="16" x2="35" y2="16"/>
			<line class="st3" x1="13" y1="25" x2="30" y2="25"/>
		</g>
	</g>
</g>
</svg>
