<?xml version="1.0" encoding="utf-8"?>
<!-- Generator: Adobe Illustrator 20.1.0, SVG Export Plug-In . SVG Version: 6.00 Build 0)  -->
<svg version="1.1" id="Шар_1" xmlns="http://www.w3.org/2000/svg" xmlns:xlink="http://www.w3.org/1999/xlink" x="0px" y="0px"
	 viewBox="0 0 10.8 10.8" style="enable-background:new 0 0 10.8 10.8;" xml:space="preserve">
<style type="text/css">
	.st0{fill:#FFFFFF;}
</style>
<g>
	<g>
		<path class="st0" d="M4,0H0.4C0.3,0,0.2,0,0.1,0.1S0,0.3,0,0.4v10c0,0.1,0,0.2,0.1,0.3c0.1,0.1,0.2,0.1,0.3,0.1H4
			c0.1,0,0.2,0,0.3-0.1s0.1-0.2,0.1-0.3v-10c0-0.1,0-0.2-0.1-0.3C4.2,0,4.1,0,4,0z"/>
		<path class="st0" d="M10.7,0.1C10.6,0,10.5,0,10.4,0H6.7C6.6,0,6.5,0,6.4,0.1C6.3,0.2,6.3,0.3,6.3,0.4v10c0,0.1,0,0.2,0.1,0.3
			c0.1,0.1,0.2,0.1,0.3,0.1h3.6c0.1,0,0.2,0,0.3-0.1c0.1-0.1,0.1-0.2,0.1-0.3v-10C10.8,0.3,10.8,0.2,10.7,0.1z"/>
	</g>
</g>
</svg>
