<?xml version="1.0" encoding="utf-8"?>
<!-- Generator: Adobe Illustrator 20.1.0, SVG Export Plug-In . SVG Version: 6.00 Build 0)  -->
<svg version="1.1" id="Шар_1" xmlns="http://www.w3.org/2000/svg" xmlns:xlink="http://www.w3.org/1999/xlink" x="0px" y="0px"
	 viewBox="0 0 18.9 21.6" style="enable-background:new 0 0 18.9 21.6;" xml:space="preserve">
<style type="text/css">
	.st0{fill:#E52328;}
</style>
<g>
	<path class="st0" d="M16.4,12.4c-0.3-0.3-0.9-0.4-1.9-0.4c-0.7,0-1.4,0.1-2.3,0.2c-0.4-0.2-0.8-0.4-1.1-0.7c-0.8-0.8-1.5-1.8-1.9-3
		c0-0.1,0.1-0.2,0.1-0.3c0,0,0.5-2.6,0.3-3.5c0-0.1,0-0.2-0.1-0.2V4.4C9.4,4.1,9.1,3.8,8.8,3.8H8.6l0,0C8.2,3.8,7.8,4,7.7,4.3
		c-0.3,1,0,2.5,0.5,4.5L8.1,9.1c-0.4,0.9-0.8,1.8-1.2,2.6l-0.1,0.1C6.4,12.6,6,13.4,5.6,14l-0.4,0.2c0,0-0.7,0.3-0.8,0.4
		c-1.2,0.7-2.1,1.6-2.2,2.3c0,0.2,0,0.5,0.2,0.6l0.4,0.2c0.2,0.1,0.3,0.1,0.5,0.1c0.9,0,1.9-1.1,3.3-3.6c1.6-0.5,3.5-1,5.1-1.2
		c1.2,0.7,2.8,1.2,3.8,1.2c0.2,0,0.3,0,0.4,0c0.2,0,0.3-0.2,0.4-0.3c0.2-0.3,0.2-0.7,0.2-1.1C16.6,12.7,16.5,12.5,16.4,12.4z
		 M3.1,17.2c0.2-0.4,0.8-1.3,1.8-2.1c0.1,0,0.2-0.2,0.3-0.3C4.2,16.3,3.5,17,3.1,17.2z M8.7,4.2c0.3,0,0.4,0.7,0.5,1.4
		c0,0.7-0.1,1.1-0.3,1.5C8.7,6.6,8.7,5.8,8.7,5.2C8.6,5.3,8.6,4.2,8.7,4.2z M7,13.4c0.2-0.4,0.4-0.7,0.6-1.1c0.5-1,0.8-1.7,1.1-2.4
		c0.5,0.9,1.1,1.6,1.8,2.2c0.1,0.1,0.2,0.1,0.3,0.2C9.4,12.7,8.1,13,7,13.4z M16.1,13.4c-0.1,0.1-0.3,0.1-0.5,0.1
		c-0.5,0-1.2-0.2-2.1-0.6c0.3,0,0.7,0,0.9,0c0.5,0,0.7,0,1.2,0.1C16.2,13,16.2,13.3,16.1,13.4z M17.7,4.2l-3-3C14,0.5,12.8,0,11.8,0
		H1.7C0.8,0,0,0.8,0,1.7v18.2c0,0.9,0.8,1.7,1.7,1.7h15.5c0.9,0,1.7-0.8,1.7-1.7V7.1C18.8,6.2,18.3,4.9,17.7,4.2z M16.7,5.2
		c0.1,0.1,0.1,0.1,0.2,0.2h-3.4V2c0.1,0.1,0.2,0.1,0.2,0.2L16.7,5.2z M17.5,19.9c0,0.2-0.2,0.3-0.3,0.3H1.7c-0.2,0-0.3-0.2-0.3-0.3
		V1.7c0-0.2,0.2-0.3,0.3-0.3h10.1c0.1,0,0.2,0,0.3,0v5.4h5.4c0,0.1,0,0.2,0,0.3V19.9z"/>
</g>
</svg>
