<?xml version="1.0" encoding="utf-8"?>
<!-- Generator: Adobe Illustrator 20.1.0, SVG Export Plug-In . SVG Version: 6.00 Build 0)  -->
<svg version="1.1" id="Шар_1" xmlns="http://www.w3.org/2000/svg" xmlns:xlink="http://www.w3.org/1999/xlink" x="0px" y="0px"
	 viewBox="0 0 11.2 11.2" style="enable-background:new 0 0 11.2 11.2;" xml:space="preserve">
<style type="text/css">
	.st0{fill:#FFFFFF;}
</style>
<path class="st0" d="M10.6,0.6C10.2,0.2,9.7,0,9.1,0h-7C1.5,0,1,0.2,0.6,0.6S0,1.5,0,2.1v7c0,0.6,0.2,1.1,0.6,1.5s0.9,0.6,1.5,0.6h7
	c0.6,0,1.1-0.2,1.5-0.6s0.6-0.9,0.6-1.5v-7C11.2,1.5,11,1,10.6,0.6z M9.3,6.1c0,0.1,0,0.2-0.1,0.3S9,6.5,8.9,6.5H6.6v2.3
	c0,0.1,0,0.2-0.1,0.3S6.3,9.2,6.2,9.2H5.3c-0.1,0-0.2,0-0.3-0.1S4.9,8.9,4.9,8.8V6.5H2.6c-0.1,0-0.2,0-0.3-0.1S2.2,6.2,2.2,6.1V5.2
	c0-0.1,0-0.2,0.1-0.3s0.2-0.1,0.3-0.1h2.3V2.5c0-0.1,0-0.2,0.1-0.3s0.2-0.1,0.3-0.1h0.9c0.1,0,0.2,0,0.3,0.1s0.1,0.2,0.1,0.3v2.3
	h2.3c0.1,0,0.2,0,0.3,0.1s0.1,0.2,0.1,0.3V6.1L9.3,6.1z"/>
</svg>
