<?xml version="1.0" encoding="utf-8"?>
<!-- Generator: Adobe Illustrator 20.1.0, SVG Export Plug-In . SVG Version: 6.00 Build 0)  -->
<svg version="1.1" id="Шар_1" xmlns="http://www.w3.org/2000/svg" xmlns:xlink="http://www.w3.org/1999/xlink" x="0px" y="0px"
	 viewBox="0 0 19 19" style="enable-background:new 0 0 19 19;" xml:space="preserve">
<style type="text/css">
	.st0{fill:#F15834;}
</style>
<g>
	<path class="st0" d="M14.2,0l-2,2h3.4l-3.3,3.3l-0.7-0.7c-0.8-0.8-2-0.8-2.8,0L4.6,8.8c-0.8,0.8-0.8,2,0,2.8l0.7,0.7L2,15.6v-3.4
		l-2,2V19h4.8l2-2H3.4l3.3-3.3l0.7,0.7c0.8,0.8,2,0.8,2.8,0l4.2-4.2c0.8-0.8,0.8-2,0-2.8l-0.7-0.7L17,3.4v3.4l2-2V0H14.2z M8.7,13.1
		l-2.8-2.8l4.2-4.2l2.8,2.8L8.7,13.1z"/>
</g>
</svg>
