<?xml version="1.0" encoding="utf-8"?>
<!-- Generator: Adobe Illustrator 20.1.0, SVG Export Plug-In . SVG Version: 6.00 Build 0)  -->
<svg version="1.1" id="Шар_1" xmlns="http://www.w3.org/2000/svg" xmlns:xlink="http://www.w3.org/1999/xlink" x="0px" y="0px"
	 viewBox="0 0 24 24" style="enable-background:new 0 0 24 24;" xml:space="preserve">
<style type="text/css">
	.st0{fill:#F26549;}
	.st1{fill:#FFFFFF;}
</style>
<g>
	<path class="st0" d="M22,24H2c-1.1,0-2-0.9-2-2V2c0-1.1,0.9-2,2-2h20c1.1,0,2,0.9,2,2v20C24,23.1,23.1,24,22,24z"/>
	<path class="st1" d="M16.7,2.4l-2,2h3.4l-3.3,3.4l-0.7-0.7c-0.8-0.8-2-0.8-2.8,0l-4.2,4.2c-0.8,0.8-0.8,2,0,2.8l0.7,0.7l-3.3,3.3
		v-3.4l-2,2v4.8h4.8l2-2H5.9l3.3-3.3l0.7,0.7c0.8,0.8,2,0.8,2.8,0l4.2-4.2c0.8-0.8,0.8-2,0-2.8l-0.7-0.7l3.3-3.3v3.4l2-2V2.5h-4.8
		V2.4z M11.3,15.5l-2.8-2.8l4.2-4.2l2.8,2.8L11.3,15.5z"/>
</g>
</svg>
