<?xml version="1.0" encoding="utf-8"?>
<!-- Generator: Adobe Illustrator 20.1.0, SVG Export Plug-In . SVG Version: 6.00 Build 0)  -->
<svg version="1.1" id="Шар_1" xmlns="http://www.w3.org/2000/svg" xmlns:xlink="http://www.w3.org/1999/xlink" x="0px" y="0px"
	 viewBox="0 0 16.3 20.1" style="enable-background:new 0 0 16.3 20.1;" xml:space="preserve">
<style type="text/css">
	.st0{fill:none;}
	.st1{fill:#FFFFFF;stroke:#000000;stroke-width:2;stroke-linejoin:round;stroke-miterlimit:10;}
	.st2{fill:#F05523;stroke:#F05523;stroke-width:2;stroke-miterlimit:10;}
</style>
<g>
	<rect x="-7.8" y="-10.6" class="st0" width="32.4" height="42"/>
	<g>
		<path class="st0" d="M21.5,25.4h-26c-1.1,0-2-0.9-2-2v-26c0-1.1,0.9-2,2-2h26c1.1,0,2,0.9,2,2v26C23.5,24.5,22.5,25.4,21.5,25.4z"
			/>
		<g>
			<path class="st1" d="M15.1,19.1H1.1V5.2c1.6-1.6,2.4-2.4,4-4h10.1C15.2,1.2,15.2,19.1,15.1,19.1z"/>
			<polyline class="st1" points="5.1,1.2 5.1,1.2 5.1,5.2 1.1,5.2 1.1,5.2 			"/>
			<polygon class="st2" points="4.1,14.9 6.9,11.3 8.5,11.9 11.1,9.7 11.1,15.2 4.1,15.2 			"/>
		</g>
	</g>
</g>
</svg>
