<?xml version="1.0" encoding="utf-8"?>
<!-- Generator: Adobe Illustrator 20.1.0, SVG Export Plug-In . SVG Version: 6.00 Build 0)  -->
<svg version="1.1" id="Шар_1" xmlns="http://www.w3.org/2000/svg" xmlns:xlink="http://www.w3.org/1999/xlink" x="0px" y="0px"
	 viewBox="0 0 24 24" style="enable-background:new 0 0 24 24;" xml:space="preserve">
<style type="text/css">
	.st0{fill:#33AFD3;}
	.st1{fill:#FFFFFF;}
</style>
<g>
	<path class="st0" d="M22,24H2c-1.1,0-2-0.9-2-2V2c0-1.1,0.9-2,2-2h20c1.1,0,2,0.9,2,2v20C24,23.1,23.1,24,22,24z"/>
	<path class="st1" d="M19.9,4.1c-2.8-2.8-7.3-2.8-10.1,0c-1.3,1.3-2.1,3.1-2.1,5c0,1.6,0.5,3.1,1.4,4.3l-1.3,1.3
		c-0.4,0-0.8,0.1-1.1,0.4l-4.2,4.2c-0.6,0.6-0.6,1.5,0,2.1c0.3,0.3,0.7,0.4,1.1,0.4s0.8-0.1,1.1-0.4l4.2-4.2
		c0.3-0.3,0.4-0.7,0.4-1.1l1.3-1.3c1.3,1,2.8,1.4,4.3,1.4c1.8,0,3.7-0.7,5-2.1C22.7,11.4,22.7,6.9,19.9,4.1z M18.5,12.8
		c-2,2-5.3,2-7.3,0c-1-1-1.5-2.3-1.5-3.6s0.5-2.7,1.5-3.6c1-1,2.3-1.5,3.6-1.5s2.6,0.5,3.6,1.5C20.5,7.5,20.5,10.8,18.5,12.8z"/>
</g>
</svg>
