<?xml version="1.0" encoding="utf-8"?>
<!-- Generator: Adobe Illustrator 20.1.0, SVG Export Plug-In . SVG Version: 6.00 Build 0)  -->
<svg version="1.1" id="Шар_1" xmlns="http://www.w3.org/2000/svg" xmlns:xlink="http://www.w3.org/1999/xlink" x="0px" y="0px"
	 viewBox="0 0 19.9 19.8" style="enable-background:new 0 0 19.9 19.8;" xml:space="preserve">
<style type="text/css">
	.st0{fill:#269ED5;}
</style>
<g>
	<path class="st0" d="M17.7,2.1c-2.8-2.8-7.3-2.8-10.1,0c-1.3,1.3-2.1,3.1-2.1,5c0,1.6,0.5,3.1,1.4,4.3l-1.2,1.3
		c-0.4,0-0.8,0.1-1.1,0.4l-4.2,4.2c-0.6,0.6-0.6,1.5,0,2.1c0.3,0.3,0.7,0.4,1.1,0.4s0.8-0.1,1.1-0.4l4.2-4.2
		c0.3-0.3,0.4-0.7,0.4-1.1l1.3-1.3c1.3,1,2.8,1.4,4.3,1.4c1.8,0,3.7-0.7,5-2.1C20.5,9.4,20.5,4.8,17.7,2.1z M16.3,10.7
		c-2,2-5.6,1.9-7.5-0.2C8,9.5,7.5,8.3,7.5,7.1C7.5,5.8,8,4.4,9,3.5c1-1,2.3-1.5,3.6-1.5s2.6,0.5,3.6,1.5
		C18.4,5.5,18.3,8.7,16.3,10.7z"/>
</g>
</svg>
