<?xml version="1.0" encoding="utf-8"?>
<!-- Generator: Adobe Illustrator 20.1.0, SVG Export Plug-In . SVG Version: 6.00 Build 0)  -->
<svg version="1.1" id="Шар_1" xmlns="http://www.w3.org/2000/svg" xmlns:xlink="http://www.w3.org/1999/xlink" x="0px" y="0px"
	 viewBox="0 0 11.3 19.6" style="enable-background:new 0 0 11.3 19.6;" xml:space="preserve">
<style type="text/css">
	.st0{fill:#B8E3E8;}
	.st1{fill:#F7F7F7;}
	.st2{fill:#483A36;}
	.st3{fill:#629399;}
</style>
<path class="st0" d="M10.6,5.2V0.3H0.8v4.9c0,2.3,1.5,4.2,3.6,4.7c-2.1,0.6-3.6,2.5-3.6,4.7v4.9h9.8v-4.9c0-2.3-1.5-4.2-3.6-4.7
	C9,9.4,10.6,7.5,10.6,5.2z"/>
<g>
	<path class="st1" d="M10.9,5.2V0.3h-0.6v4.9c0,2.1-1.4,3.9-3.4,4.4c-0.1,0-0.2,0.2-0.2,0.3s0.1,0.3,0.2,0.3c2,0.5,3.4,2.4,3.4,4.4
		v4.9h0.6v-4.9c0-2.1-1.2-3.9-3-4.7C9.7,9.1,10.9,7.3,10.9,5.2z"/>
	<path class="st1" d="M4.4,9.7C2.4,9.2,1,7.3,1,5.3V0.4H0.4v4.9c0,2.1,1.2,3.9,3,4.7c-1.8,0.9-3,2.7-3,4.7v4.9H1v-4.9
		c0-2.1,1.4-3.9,3.4-4.4c0.1,0,0.2-0.2,0.2-0.3C4.7,9.8,4.6,9.7,4.4,9.7z"/>
</g>
<g>
	<path class="st2" d="M11,19.9H0.3c-0.2,0-0.3-0.1-0.3-0.3c0-0.2,0.1-0.3,0.3-0.3H11c0.2,0,0.3,0.1,0.3,0.3
		C11.3,19.8,11.2,19.9,11,19.9z"/>
	<path class="st2" d="M11,0.6H0.3C0.1,0.6,0,0.5,0,0.3C0,0.1,0.1,0,0.3,0H11c0.2,0,0.3,0.1,0.3,0.3C11.3,0.5,11.2,0.6,11,0.6z"/>
</g>
<path class="st3" d="M6,13.1V8.9c0.3,0,0.5-0.1,0.6-0.1c1.2-0.3,2.2-1.3,2.5-2.4H2.2c0.4,1.2,1.3,2.1,2.5,2.4c0.2,0,0.4,0.1,0.6,0.1
	v4.2C3.4,13.3,2,14.8,2,16.7v1.6h7.3v-1.6C9.3,14.8,7.8,13.2,6,13.1z"/>
</svg>
