<?xml version="1.0" encoding="utf-8"?>
<!-- Generator: Adobe Illustrator 20.1.0, SVG Export Plug-In . SVG Version: 6.00 Build 0)  -->
<svg version="1.1" id="Шар_1" xmlns="http://www.w3.org/2000/svg" xmlns:xlink="http://www.w3.org/1999/xlink" x="0px" y="0px"
	 viewBox="0 0 32 26.5" style="enable-background:new 0 0 32 26.5;" xml:space="preserve">
<style type="text/css">
	.st0{fill:#EDF0F5;stroke:#2D445D;stroke-width:2;stroke-miterlimit:10;}
	.st1{fill:none;stroke:#2D445D;stroke-width:2;stroke-miterlimit:10;}
	.st2{fill:none;stroke:#2D445D;stroke-width:2;stroke-linejoin:round;stroke-miterlimit:10;}
	.st3{fill:none;stroke:#E4445D;stroke-width:2;stroke-miterlimit:10;}
	.st4{fill:#E4445D;}
</style>
<g>
	<g>
		<path class="st0" d="M1,21.7v-16c2-2,3-3,5-5h11v21L1,21.7z"/>
		<line class="st1" x1="4.5" y1="9.1" x2="14" y2="9.1"/>
		<line class="st1" x1="4.5" y1="13.1" x2="14" y2="13.1"/>
		<line class="st1" x1="4.5" y1="17.1" x2="9.2" y2="17.1"/>
		<polygon class="st2" points="6,5.7 1,5.7 6,0.7 		"/>
	</g>
	<g>
		<path class="st0" d="M5,24.7v-16c2-2,3-3,5-5h11v21L5,24.7z"/>
		<line class="st1" x1="8.5" y1="12.1" x2="18" y2="12.1"/>
		<line class="st1" x1="8.5" y1="16.1" x2="18" y2="16.1"/>
		<line class="st1" x1="8.5" y1="20.1" x2="13.2" y2="20.1"/>
		<polygon class="st2" points="10,8.7 5,8.7 10,3.7 		"/>
	</g>
	<g>
		<g>
			<path class="st3" d="M13.2,20.1c12.9,0,14.9-3.1,15.1-14.3"/>
			<g>
				<polygon class="st4" points="31.6,9.9 28.3,6.4 24.9,9.7 24.9,6.9 28.4,3.5 31.7,7 				"/>
			</g>
		</g>
	</g>
</g>
</svg>
