<?xml version="1.0" encoding="utf-8"?>
<!-- Generator: Adobe Illustrator 20.1.0, SVG Export Plug-In . SVG Version: 6.00 Build 0)  -->
<svg version="1.1" id="Шар_1" xmlns="http://www.w3.org/2000/svg" xmlns:xlink="http://www.w3.org/1999/xlink" x="0px" y="0px"
	 viewBox="0 0 15.9 16" style="enable-background:new 0 0 15.9 16;" xml:space="preserve">
<style type="text/css">
	.st0{fill:none;}
	.st1{fill:#676868;}
</style>
<g>
	<rect x="-8.2" y="-13" class="st0" width="32.4" height="42"/>
	<g>
		<path class="st1" d="M0,8.8c0-0.5,0-1.1,0-1.6C0.1,7,0.1,6.8,0.2,6.6c0.7-0.1,1.4-0.1,2.2-0.2c0.2-0.5,0.4-0.9,0.5-1.3
			c-0.5-0.6-1-1.2-1.4-1.7C2.1,2.6,2.6,2,3.4,1.5C4,2,4.6,2.5,5.1,2.9C5.6,2.7,6,2.5,6.4,2.4c0.1-0.8,0.1-1.5,0.2-2.2
			C6.8,0.1,7,0.1,7.2,0c0.5,0,1,0,1.5,0c0.2,0.1,0.4,0.1,0.6,0.2c0.1,0.7,0.1,1.4,0.2,2.2c0.5,0.2,0.9,0.4,1.3,0.5
			c0.6-0.5,1.1-0.9,1.7-1.4c0.8,0.5,1.4,1.1,1.9,1.9c-0.5,0.6-1,1.2-1.4,1.7c0.2,0.5,0.4,0.9,0.5,1.3c0.7,0.1,1.5,0.2,2.2,0.2
			c0.1,0.2,0.1,0.4,0.2,0.6c0,0.5,0,1.1,0,1.6c-0.1,0.2-0.1,0.3-0.2,0.5c-0.7,0.1-1.5,0.1-2.2,0.2c-0.2,0.5-0.4,0.9-0.5,1.3
			c0.5,0.6,0.9,1.2,1.4,1.8c-0.6,0.7-1.1,1.4-1.9,1.9c-0.6-0.5-1.2-0.9-1.7-1.4c-0.5,0.2-0.9,0.4-1.3,0.6c-0.1,0.7-0.1,1.4-0.2,2.1
			C9.1,15.9,9,15.9,8.8,16c-0.6,0-1.1,0-1.7,0c-0.2-0.1-0.3-0.1-0.5-0.2c-0.1-0.7-0.1-1.4-0.2-2.1c-0.5-0.2-0.9-0.4-1.3-0.5
			c-0.6,0.5-1.2,1-1.8,1.4c-0.7-0.6-1.4-1.2-1.9-1.9c0.5-0.6,1-1.2,1.4-1.7c-0.2-0.5-0.4-0.9-0.6-1.3C1.5,9.6,0.7,9.6,0,9.5
			C0.2,9.1,0.1,9,0,8.8z M8,5.6C6.7,5.6,5.6,6.7,5.6,8s1.1,2.4,2.4,2.4s2.4-1.1,2.4-2.4S9.3,5.6,8,5.6z"/>
	</g>
</g>
</svg>
