<?xml version="1.0" encoding="utf-8"?>
<!-- Generator: Adobe Illustrator 20.1.0, SVG Export Plug-In . SVG Version: 6.00 Build 0)  -->
<svg version="1.1" id="Шар_1" xmlns="http://www.w3.org/2000/svg" xmlns:xlink="http://www.w3.org/1999/xlink" x="0px" y="0px"
	 viewBox="0 0 276.7 362.6" style="enable-background:new 0 0 276.7 362.6;" xml:space="preserve">
<style type="text/css">
	.st0{fill:#239ED4;}
	.st1{fill:#60A744;}
	.st2{fill:#F15534;}
	.st3{fill:#F1812F;}
	.st4{fill:none;}
	.st5{fill:#75859E;}
	.st6{fill:#FFFFFF;}
	.st7{fill:#676767;}
	.st8{fill:#FFFFFF;stroke:#000000;stroke-width:2;stroke-linejoin:round;stroke-miterlimit:10;}
	.st9{fill:#F05523;stroke:#F05523;stroke-width:2;stroke-miterlimit:10;}
	.st10{fill:#4478BC;}
	.st11{fill:#3070A8;}
	.st12{fill:#DB2D27;}
	.st13{fill:#A9A8A8;}
	.st14{fill:#33AFD3;}
	.st15{fill:#73A842;}
	.st16{fill:#F26449;}
	.st17{fill:#EAA742;}
	.st18{fill:#5885C4;}
	.st19{fill:#E1E8F0;}
	.st20{fill:#F05555;stroke:#EF3E54;stroke-miterlimit:10;}
	.st21{fill:none;stroke:#FFFFFF;stroke-width:3;stroke-miterlimit:10;}
	.st22{fill:#68B845;}
	.st23{fill:#EE4B47;}
	.st24{fill:#1072BA;}
	.st25{fill:#E81D25;}
	.st26{fill:#ED2224;}
	.st27{fill:#2FB44A;}
	.st28{fill:#6287C5;}
	.st29{fill:#AB2823;}
	.st30{fill:#CB3027;}
	.st31{fill:#485A93;}
	.st32{fill:url(#XMLID_2_);}
	.st33{fill:url(#XMLID_3_);}
	.st34{fill:url(#XMLID_4_);}
	.st35{fill:#D32729;}
	.st36{fill:#CC202E;}
	.st37{fill:#BB2030;}
	.st38{fill:#B6E2E8;}
	.st39{fill:#F8F7F7;}
	.st40{fill:#473936;}
	.st41{fill:#619399;}
	.st42{fill:#45B05B;}
	.st43{fill:none;stroke:#FFFFFF;stroke-width:2;stroke-linecap:round;stroke-linejoin:round;stroke-miterlimit:10;}
	.st44{fill:#758697;}
</style>
<g>
	<path class="st0" d="M96,15.5c-2.8-2.8-7.3-2.8-10.1,0c-1.3,1.3-2.1,3.1-2.1,5c0,1.6,0.5,3.1,1.4,4.3L84,26.1
		c-0.4,0-0.8,0.1-1.1,0.4l-4.2,4.2c-0.6,0.6-0.6,1.5,0,2.1c0.3,0.3,0.7,0.4,1.1,0.4s0.8-0.1,1.1-0.4l4.2-4.2
		c0.3-0.3,0.4-0.7,0.4-1.1l1.3-1.3c1.3,1,2.8,1.4,4.3,1.4c1.8,0,3.7-0.7,5-2.1C98.8,22.8,98.8,18.2,96,15.5z M94.6,24.1
		c-2,2-5.3,2-7.3,0c-1-1-1.5-2.3-1.5-3.6s0.5-2.7,1.5-3.6c1-1,2.3-1.5,3.6-1.5s2.6,0.5,3.6,1.5C96.6,18.9,96.6,22.1,94.6,24.1z"/>
</g>
<g>
	<path class="st1" d="M196.1,18.6c0-5.9-2.6-5.8-5.8-5.8c-3.2,0-5.8-0.1-5.8,5.8c0,2.5,1.6,4,3.8,4.6v3.1l1.2,0.8l-1.2,1.6l1,1.6
		l-1,1.5c0,1.1,2,2,2,2s2-0.9,2-2v-8.6C194.6,22.7,196.1,21.1,196.1,18.6z M190.3,18.6c-1.2,0-2.2-1-2.2-2.2c0-1.2,1-2.2,2.2-2.2
		c1.2,0,2.2,1,2.2,2.2C192.5,17.7,191.5,18.6,190.3,18.6z"/>
</g>
<g>
	<path class="st2" d="M142.6,13.8l-2,2l3.4,0l-3.3,3.3l-0.7-0.7c-0.8-0.8-2-0.8-2.8,0l-4.2,4.2c-0.8,0.8-0.8,2,0,2.8l0.7,0.7
		l-3.3,3.3l0-3.4l-2,2l0,4.8l4.8,0l2-2l-3.4,0l3.3-3.3l0.7,0.7c0.8,0.8,2,0.8,2.8,0l4.2-4.2c0.8-0.8,0.8-2,0-2.8l-0.7-0.7l3.3-3.3
		l0,3.4l2-2v-4.8H142.6z M137.1,26.9l-2.8-2.8l4.2-4.2l2.8,2.8L137.1,26.9z"/>
</g>
<g>
	<g>
		<polygon class="st3" points="239.5,20.8 237,20 233.5,25 233.5,27.2 244.5,27.2 244.5,17.2 		"/>
		<g>
			<polygon class="st3" points="246.7,31.1 229.6,31.1 229.6,15.9 231.6,15.9 231.6,29.1 246.7,29.1 			"/>
		</g>
	</g>
</g>
<g>
	<rect x="21.2" y="1" transform="matrix(-1 -1.224647e-16 1.224647e-16 -1 71.0832 44)" class="st4" width="28.7" height="42"/>
	<path class="st5" d="M45.5,34h-20c-1.1,0-2-0.9-2-2V12c0-1.1,0.9-2,2-2h20c1.1,0,2,0.9,2,2v20C47.5,33.1,46.6,34,45.5,34z"/>
	<g>
		<g>
			<g>
				<path class="st6" d="M42.8,17.9l-3.2-3.2l0.8-0.8c0.7-0.7,1.8-0.7,2.5,0l0.7,0.7c0.7,0.7,0.7,1.8,0,2.5L42.8,17.9z"/>
			</g>
			<g>
				<path class="st6" d="M28.3,26.3L27,29.8c-0.1,0.2,0,0.5,0.1,0.6c0.2,0.2,0.4,0.2,0.6,0.1l3.5-1.3L28.3,26.3z"/>
			</g>
			
				<rect x="28.7" y="19.8" transform="matrix(0.7071 -0.7071 0.7071 0.7071 -5.2127 31.5482)" class="st6" width="13.6" height="4.6"/>
		</g>
	</g>
</g>
<g>
	<rect x="152.6" y="293.7" class="st4" width="32.4" height="42"/>
	<g>
		<path class="st7" d="M160.8,315.5c0-0.5,0-1.1,0-1.6c0.1-0.2,0.1-0.4,0.2-0.6c0.7-0.1,1.4-0.1,2.2-0.2c0.2-0.5,0.4-0.9,0.5-1.3
			c-0.5-0.6-1-1.2-1.4-1.7c0.6-0.8,1.1-1.4,1.9-1.9c0.6,0.5,1.2,1,1.7,1.4c0.5-0.2,0.9-0.4,1.3-0.5c0.1-0.8,0.1-1.5,0.2-2.2
			c0.2-0.1,0.4-0.1,0.6-0.2c0.5,0,1,0,1.5,0c0.2,0.1,0.4,0.1,0.6,0.2c0.1,0.7,0.1,1.4,0.2,2.2c0.5,0.2,0.9,0.4,1.3,0.5
			c0.6-0.5,1.1-0.9,1.7-1.4c0.8,0.5,1.4,1.1,1.9,1.9c-0.5,0.6-1,1.2-1.4,1.7c0.2,0.5,0.4,0.9,0.5,1.3c0.7,0.1,1.5,0.2,2.2,0.2
			c0.1,0.2,0.1,0.4,0.2,0.6c0,0.5,0,1.1,0,1.6c-0.1,0.2-0.1,0.3-0.2,0.5c-0.7,0.1-1.5,0.1-2.2,0.2c-0.2,0.5-0.4,0.9-0.5,1.3
			c0.5,0.6,0.9,1.2,1.4,1.8c-0.6,0.7-1.1,1.4-1.9,1.9c-0.6-0.5-1.2-0.9-1.7-1.4c-0.5,0.2-0.9,0.4-1.3,0.6c-0.1,0.7-0.1,1.4-0.2,2.1
			c-0.2,0.1-0.3,0.1-0.5,0.2c-0.6,0-1.1,0-1.7,0c-0.2-0.1-0.3-0.1-0.5-0.2c-0.1-0.7-0.1-1.4-0.2-2.1c-0.5-0.2-0.9-0.4-1.3-0.5
			c-0.6,0.5-1.2,1-1.8,1.4c-0.7-0.6-1.4-1.2-1.9-1.9c0.5-0.6,1-1.2,1.4-1.7c-0.2-0.5-0.4-0.9-0.6-1.3c-0.7-0.1-1.5-0.1-2.2-0.2
			C161,315.8,160.9,315.7,160.8,315.5z M168.8,312.3c-1.3,0-2.4,1.1-2.4,2.4c0,1.3,1.1,2.4,2.4,2.4c1.3,0,2.4-1.1,2.4-2.4
			C171.2,313.4,170.1,312.3,168.8,312.3z"/>
	</g>
</g>
<g>
	<rect x="19.1" y="52.2" class="st4" width="32.4" height="42"/>
	<g>
		<path class="st4" d="M48.3,88.2h-26c-1.1,0-2-0.9-2-2v-26c0-1.1,0.9-2,2-2h26c1.1,0,2,0.9,2,2v26C50.3,87.3,49.4,88.2,48.3,88.2z"
			/>
		<g>
			<path class="st8" d="M42,81.9H27.9V67.9c1.6-1.6,2.4-2.4,4-4H42V81.9z"/>
			<polyline class="st8" points="31.9,63.9 31.9,63.9 31.9,67.9 27.9,67.9 27.9,67.9 			"/>
			<polygon class="st9" points="30.7,77.7 33.5,74.1 35.1,74.7 37.7,72.5 37.7,77.7 30.7,77.7 			"/>
		</g>
	</g>
</g>
<g>
	<rect x="72.4" y="52.2" class="st4" width="32.4" height="42"/>
	<g>
		<path class="st4" d="M98.6,85.2h-20c-1.1,0-2-0.9-2-2v-20c0-1.1,0.9-2,2-2h20c1.1,0,2,0.9,2,2v20C100.6,84.3,99.7,85.2,98.6,85.2z
			"/>
		<g>
			<path class="st10" d="M88.6,79.3c-1.7,0-3.2-0.7-4.4-1.9l1.8-1.8c0.3-0.3,0.1-0.7-0.3-0.7h-5.3c-0.2,0-0.4,0.2-0.4,0.4v5.3
				c0,0.4,0.5,0.6,0.7,0.3l1.7-1.7c1.6,1.6,3.8,2.6,6.2,2.6c4.7,0,8.6-3.9,8.6-8.6h-2.5C94.7,76.5,92,79.3,88.6,79.3z"/>
			<path class="st10" d="M96.5,65.5l-1.7,1.7c-1.6-1.6-3.8-2.6-6.2-2.6c-4.7,0-8.6,3.9-8.6,8.6h2.5c0-3.3,2.7-6.1,6.1-6.1
				c1.7,0,3.2,0.7,4.4,1.9l-1.8,1.8c-0.3,0.3-0.1,0.7,0.3,0.7h5.3c0.2,0,0.4-0.2,0.4-0.4v-5.3C97.2,65.4,96.8,65.2,96.5,65.5z"/>
		</g>
	</g>
</g>
<g>
	<rect x="121.6" y="104.4" class="st4" width="32.4" height="42"/>
	<g>
		<rect x="129.8" y="127.4" class="st11" width="4" height="4"/>
		<rect x="135.8" y="123.4" class="st11" width="4" height="8"/>
		<rect x="141.8" y="119.4" class="st11" width="4" height="12"/>
	</g>
</g>
<g>
	<rect x="173.6" y="104.7" class="st4" width="32.4" height="42"/>
	<g>
		
			<rect x="193.8" y="127.7" transform="matrix(-1 -4.502011e-11 4.502011e-11 -1 391.5367 259.4009)" class="st12" width="4" height="4"/>
		
			<rect x="187.8" y="123.7" transform="matrix(-1 -4.502011e-11 4.502011e-11 -1 379.5367 255.4009)" class="st12" width="4" height="8"/>
		
			<rect x="181.8" y="119.7" transform="matrix(-1 -4.502011e-11 4.502011e-11 -1 367.5367 251.4009)" class="st12" width="4" height="12"/>
	</g>
</g>
<g>
	<rect x="222.6" y="106.4" class="st4" width="32.4" height="42"/>
	<g>
		
			<rect x="242.7" y="123.4" transform="matrix(-1 -4.502011e-11 4.502011e-11 -1 489.4287 254.828)" class="st13" width="4" height="8"/>
		
			<rect x="236.7" y="123.4" transform="matrix(-1 -4.502011e-11 4.502011e-11 -1 477.4287 254.828)" class="st13" width="4" height="8"/>
		
			<rect x="230.7" y="123.4" transform="matrix(-1 -4.502011e-11 4.502011e-11 -1 465.4287 254.828)" class="st13" width="4" height="8"/>
	</g>
</g>
<g>
	<path class="st14" d="M147.8,85.2h-20c-1.1,0-2-0.9-2-2v-20c0-1.1,0.9-2,2-2h20c1.1,0,2,0.9,2,2v20
		C149.8,84.3,148.9,85.2,147.8,85.2z"/>
	<path class="st6" d="M145.7,65.3c-2.8-2.8-7.3-2.8-10.1,0c-1.3,1.3-2.1,3.1-2.1,5c0,1.6,0.5,3.1,1.4,4.3l-1.3,1.3
		c-0.4,0-0.8,0.1-1.1,0.4l-4.2,4.2c-0.6,0.6-0.6,1.5,0,2.1c0.3,0.3,0.7,0.4,1.1,0.4s0.8-0.1,1.1-0.4l4.2-4.2
		c0.3-0.3,0.4-0.7,0.4-1.1l1.3-1.3c1.3,1,2.8,1.4,4.3,1.4c1.8,0,3.7-0.7,5-2.1C148.5,72.6,148.5,68.1,145.7,65.3z M144.3,74
		c-2,2-5.3,2-7.3,0c-1-1-1.5-2.3-1.5-3.6s0.5-2.7,1.5-3.6c1-1,2.3-1.5,3.6-1.5s2.6,0.5,3.6,1.5C146.3,68.7,146.3,72,144.3,74z"/>
</g>
<g>
	<path class="st15" d="M248.5,84.4h-20c-1.1,0-2-0.9-2-2v-20c0-1.1,0.9-2,2-2h20c1.1,0,2,0.9,2,2v20
		C250.5,83.5,249.6,84.4,248.5,84.4z"/>
	<path class="st6" d="M244.3,67.7c0-5.9-2.6-5.8-5.8-5.8c-3.2,0-5.8-0.1-5.8,5.8c0,2.5,1.6,4,3.8,4.6v3.1l1.2,0.8l-1.2,1.6l1,1.6
		l-1,1.5c0,1.1,2,2,2,2s2-0.9,2-2v-8.6C242.8,71.7,244.3,70.2,244.3,67.7z M238.5,67.7c-1.2,0-2.2-1-2.2-2.2c0-1.2,1-2.2,2.2-2.2
		c1.2,0,2.2,1,2.2,2.2C240.7,66.7,239.7,67.7,238.5,67.7z"/>
</g>
<g>
	<path class="st16" d="M198.2,85.2h-20c-1.1,0-2-0.9-2-2v-20c0-1.1,0.9-2,2-2h20c1.1,0,2,0.9,2,2v20
		C200.2,84.3,199.3,85.2,198.2,85.2z"/>
	<path class="st6" d="M192.9,63.6l-2,2l3.4,0L191,69l-0.7-0.7c-0.8-0.8-2-0.8-2.8,0l-4.2,4.2c-0.8,0.8-0.8,2,0,2.8l0.7,0.7l-3.3,3.3
		l0-3.4l-2,2l0,4.8l4.8,0l2-2l-3.4,0l3.3-3.3l0.7,0.7c0.8,0.8,2,0.8,2.8,0l4.2-4.2c0.8-0.8,0.8-2,0-2.8l-0.7-0.7l3.3-3.3l0,3.4l2-2
		v-4.8H192.9z M187.5,76.7l-2.8-2.8l4.2-4.2l2.8,2.8L187.5,76.7z"/>
</g>
<g>
	<path class="st17" d="M100,137.7H80c-1.1,0-2-0.9-2-2v-20c0-1.1,0.9-2,2-2h20c1.1,0,2,0.9,2,2v20C102,136.8,101.1,137.7,100,137.7z
		"/>
	<g>
		<polygon class="st6" points="91.3,123 88.8,122.2 85.3,127.2 85.3,129.4 96.3,129.4 96.3,119.4 		"/>
		<g>
			<polygon class="st6" points="98.6,133.3 81.4,133.3 81.4,118.1 83.4,118.1 83.4,131.3 98.6,131.3 			"/>
		</g>
	</g>
</g>
<g>
	<g>
		<path class="st6" d="M44.5,136.7h-18c-1.1,0-2-0.9-2-2v-18c0-1.1,0.9-2,2-2h18c1.1,0,2,0.9,2,2v18
			C46.5,135.8,45.6,136.7,44.5,136.7z"/>
		<g>
			<g>
				
					<rect x="34" y="119.7" transform="matrix(0.7071 -0.7071 0.7071 0.7071 -78.4739 61.9482)" class="st18" width="3" height="12"/>
			</g>
			<g>
				
					<rect x="29.5" y="124.2" transform="matrix(0.7071 -0.7071 0.7071 0.7071 -78.4739 61.9482)" class="st18" width="12" height="3"/>
			</g>
		</g>
	</g>
</g>
<g>
	<rect x="135.6" y="224.6" class="st4" width="14" height="42"/>
	<g>
		<rect x="135.6" y="238.6" class="st19" width="14" height="2"/>
		<rect x="135.6" y="242.6" class="st19" width="14" height="2"/>
		<rect x="135.6" y="246.6" class="st19" width="14" height="2"/>
		<rect x="135.6" y="250.6" class="st19" width="14" height="2"/>
	</g>
</g>
<g>
	<path class="st20" d="M44.5,176.7h-18c-1.1,0-2-0.9-2-2v-18c0-1.1,0.9-2,2-2h18c1.1,0,2,0.9,2,2v18
		C46.5,175.8,45.6,176.7,44.5,176.7z"/>
	<g>
		<line class="st21" x1="31.3" y1="161.4" x2="39.8" y2="170"/>
		<polyline class="st21" points="31.3,170 35.5,165.7 39.8,161.4 		"/>
	</g>
</g>
<polygon class="st7" points="183.5,240.7 197.2,240.7 190.3,249.7 "/>
<g>
	<rect x="27" y="299.2" class="st4" width="30" height="31"/>
	<g>
		<path class="st22" d="M48.9,307.7c3.9,0,7,3.1,7,7s-3.1,7-7,7H35c-3.9,0-7-3.1-7-7s3.1-7,7-7H48.9z"/>
		<circle class="st6" cx="48.9" cy="314.7" r="5"/>
	</g>
</g>
<g>
	<rect x="89.8" y="299.2" class="st4" width="30" height="31"/>
	<g>
		<path class="st23" d="M97.8,321.7c-3.9,0-7-3.1-7-7s3.1-7,7-7h13.9c3.9,0,7,3.1,7,7s-3.1,7-7,7H97.8z"/>
		<circle class="st6" cx="97.8" cy="314.7" r="5"/>
	</g>
</g>
<g>
	<path class="st24" d="M99.1,167.7l-2.3-2.3c-0.6-0.6-1.4-0.9-2.3-0.9c-0.9,0-1.7,0.3-2.3,1l-1-1c0.6-0.6,1-1.4,1-2.3
		c0-0.9-0.3-1.6-0.9-2.2l-2.3-2.3c-0.6-0.6-1.4-0.9-2.3-0.9c-0.9,0-1.6,0.3-2.2,0.9l-1.6,1.6c-0.6,0.6-0.9,1.4-0.9,2.2
		c0,0.9,0.3,1.6,0.9,2.3l2.3,2.3c0.6,0.6,1.4,0.9,2.3,0.9c0.9,0,1.7-0.3,2.3-1l1,1c-0.6,0.6-1,1.4-1,2.3c0,0.9,0.3,1.6,0.9,2.2
		l2.3,2.3c0.6,0.6,1.4,0.9,2.3,0.9c0.9,0,1.6-0.3,2.2-0.9l1.6-1.6c0.6-0.6,0.9-1.4,0.9-2.2C100,169.1,99.7,168.3,99.1,167.7z
		 M89.8,163c0,0-0.1-0.1-0.2-0.2c-0.1-0.1-0.2-0.2-0.2-0.2c0,0-0.1-0.1-0.2-0.2c-0.1-0.1-0.2-0.1-0.3-0.1c-0.1,0-0.2,0-0.3,0
		c-0.3,0-0.5,0.1-0.8,0.3s-0.3,0.5-0.3,0.8c0,0.1,0,0.2,0,0.3c0,0.1,0.1,0.2,0.1,0.3c0.1,0.1,0.1,0.2,0.2,0.2c0,0,0.1,0.1,0.2,0.2
		c0.1,0.1,0.2,0.2,0.2,0.2c-0.2,0.2-0.5,0.3-0.8,0.3c-0.3,0-0.6-0.1-0.8-0.3l-2.3-2.3c-0.2-0.2-0.3-0.5-0.3-0.8
		c0-0.3,0.1-0.5,0.3-0.7l1.6-1.6c0.2-0.2,0.5-0.3,0.8-0.3c0.3,0,0.5,0.1,0.8,0.3l2.3,2.3c0.2,0.2,0.3,0.5,0.3,0.8
		C90.1,162.5,90,162.7,89.8,163z M97.6,170.7l-1.6,1.6c-0.2,0.2-0.5,0.3-0.8,0.3c-0.3,0-0.6-0.1-0.8-0.3l-2.3-2.3
		c-0.2-0.2-0.3-0.5-0.3-0.8c0-0.3,0.1-0.6,0.4-0.8c0,0,0.1,0.1,0.2,0.2c0.1,0.1,0.2,0.2,0.2,0.2c0,0,0.1,0.1,0.2,0.2
		c0.1,0.1,0.2,0.1,0.3,0.1c0.1,0,0.2,0,0.3,0c0.3,0,0.5-0.1,0.8-0.3c0.2-0.2,0.3-0.5,0.3-0.8c0-0.1,0-0.2,0-0.3
		c0-0.1-0.1-0.2-0.1-0.3c-0.1-0.1-0.1-0.2-0.2-0.2c0,0-0.1-0.1-0.2-0.2c-0.1-0.1-0.2-0.2-0.2-0.2c0.2-0.2,0.5-0.4,0.8-0.4
		c0.3,0,0.5,0.1,0.8,0.3l2.3,2.3c0.2,0.2,0.3,0.5,0.3,0.8C97.9,170.2,97.8,170.5,97.6,170.7z"/>
</g>
<g>
	<path class="st25" d="M196.9,166c-0.3-0.3-0.9-0.4-1.9-0.4c-0.7,0-1.4,0.1-2.3,0.2c-0.4-0.2-0.8-0.4-1.1-0.7
		c-0.8-0.8-1.5-1.8-1.9-3c0-0.1,0.1-0.2,0.1-0.3c0,0,0.5-2.6,0.3-3.5c0-0.1,0-0.2-0.1-0.2l0-0.1c-0.1-0.3-0.4-0.6-0.7-0.6l-0.2,0
		l0,0c-0.4,0-0.8,0.2-0.9,0.5c-0.3,1,0,2.5,0.5,4.5l-0.1,0.3c-0.4,0.9-0.8,1.8-1.2,2.6l-0.1,0.1c-0.4,0.8-0.8,1.6-1.2,2.2l-0.4,0.2
		c0,0-0.7,0.3-0.8,0.4c-1.2,0.7-2.1,1.6-2.2,2.3c0,0.2,0,0.5,0.2,0.6l0.4,0.2c0.2,0.1,0.3,0.1,0.5,0.1c0.9,0,1.9-1.1,3.3-3.6
		c1.6-0.5,3.5-1,5.1-1.2c1.2,0.7,2.8,1.2,3.8,1.2c0.2,0,0.3,0,0.4,0c0.2,0,0.3-0.2,0.4-0.3c0.2-0.3,0.2-0.7,0.2-1.1
		C197.1,166.3,197,166.1,196.9,166z M183.6,170.8c0.2-0.4,0.8-1.3,1.8-2.1c0.1,0,0.2-0.2,0.3-0.3C184.7,169.9,184,170.6,183.6,170.8
		z M189.2,157.8c0.3,0,0.4,0.7,0.5,1.4c0,0.7-0.1,1.1-0.3,1.5c-0.2-0.5-0.2-1.3-0.2-1.9C189.1,158.9,189.1,157.8,189.2,157.8z
		 M187.5,167c0.2-0.4,0.4-0.7,0.6-1.1c0.5-1,0.8-1.7,1.1-2.4c0.5,0.9,1.1,1.6,1.8,2.2c0.1,0.1,0.2,0.1,0.3,0.2
		C189.9,166.3,188.6,166.6,187.5,167z M196.6,167c-0.1,0.1-0.3,0.1-0.5,0.1c-0.5,0-1.2-0.2-2.1-0.6c0.3,0,0.7,0,0.9,0
		c0.5,0,0.7,0,1.2,0.1C196.7,166.6,196.7,166.9,196.6,167z M198.2,157.8l-3-3c-0.7-0.7-1.9-1.2-2.9-1.2h-10.1
		c-0.9,0-1.7,0.8-1.7,1.7v18.2c0,0.9,0.8,1.7,1.7,1.7h15.5c0.9,0,1.7-0.8,1.7-1.7v-12.8C199.3,159.8,198.8,158.5,198.2,157.8z
		 M197.2,158.8c0.1,0.1,0.1,0.1,0.2,0.2H194v-3.4c0.1,0.1,0.2,0.1,0.2,0.2L197.2,158.8z M198,173.5c0,0.2-0.2,0.3-0.3,0.3h-15.5
		c-0.2,0-0.3-0.2-0.3-0.3v-18.2c0-0.2,0.2-0.3,0.3-0.3h10.1c0.1,0,0.2,0,0.3,0v5.4h5.4c0,0.1,0,0.2,0,0.3V173.5z"/>
</g>
<g>
	<path class="st24" d="M246.9,166.9c-0.3-0.3-0.9-0.4-1.9-0.4c-0.7,0-1.4,0.1-2.3,0.2c-0.4-0.2-0.8-0.4-1.1-0.7
		c-0.8-0.8-1.5-1.8-1.9-3c0-0.1,0.1-0.2,0.1-0.3c0,0,0.5-2.6,0.3-3.5c0-0.1,0-0.2-0.1-0.2l0-0.1c-0.1-0.3-0.4-0.6-0.7-0.6l-0.2,0
		l0,0c-0.4,0-0.8,0.2-0.9,0.5c-0.3,1,0,2.5,0.5,4.5l-0.1,0.3c-0.4,0.9-0.8,1.8-1.2,2.6l-0.1,0.1c-0.4,0.8-0.8,1.6-1.2,2.2l-0.4,0.2
		c0,0-0.7,0.3-0.8,0.4c-1.2,0.7-2.1,1.6-2.2,2.3c0,0.2,0,0.5,0.2,0.6l0.4,0.2c0.2,0.1,0.3,0.1,0.5,0.1c0.9,0,1.9-1.1,3.3-3.6
		c1.6-0.5,3.5-1,5.1-1.2c1.2,0.7,2.8,1.2,3.8,1.2c0.2,0,0.3,0,0.4,0c0.2,0,0.3-0.2,0.4-0.3c0.2-0.3,0.2-0.7,0.2-1.1
		C247.1,167.2,247,167,246.9,166.9z M233.7,171.7c0.2-0.4,0.8-1.3,1.8-2.1c0.1,0,0.2-0.2,0.3-0.3
		C234.8,170.8,234.1,171.5,233.7,171.7z M239.3,158.7c0.3,0,0.4,0.7,0.5,1.4c0,0.7-0.1,1.1-0.3,1.5c-0.2-0.5-0.2-1.3-0.2-1.9
		C239.2,159.7,239.2,158.7,239.3,158.7z M237.6,167.9c0.2-0.4,0.4-0.7,0.6-1.1c0.5-1,0.8-1.7,1.1-2.4c0.5,0.9,1.1,1.6,1.8,2.2
		c0.1,0.1,0.2,0.1,0.3,0.2C239.9,167.2,238.7,167.5,237.6,167.9z M246.7,167.9c-0.1,0.1-0.3,0.1-0.5,0.1c-0.5,0-1.2-0.2-2.1-0.6
		c0.3,0,0.7,0,0.9,0c0.5,0,0.7,0,1.2,0.1C246.8,167.5,246.8,167.8,246.7,167.9z M248.2,158.7l-3-3c-0.7-0.7-1.9-1.2-2.9-1.2h-10.1
		c-0.9,0-1.7,0.8-1.7,1.7v18.2c0,0.9,0.8,1.7,1.7,1.7h15.5c0.9,0,1.7-0.8,1.7-1.7v-12.8C249.4,160.7,248.9,159.4,248.2,158.7z
		 M247.3,159.7c0.1,0.1,0.1,0.1,0.2,0.2H244v-3.4c0.1,0.1,0.2,0.1,0.2,0.2L247.3,159.7z M248.1,174.4c0,0.2-0.2,0.3-0.3,0.3h-15.5
		c-0.2,0-0.3-0.2-0.3-0.3v-18.2c0-0.2,0.2-0.3,0.3-0.3h10.1c0.1,0,0.2,0,0.3,0v5.4h5.4c0,0.1,0,0.2,0,0.3V174.4z"/>
</g>
<g>
	<path class="st26" d="M147.9,166.8l-2.3-2.3c-0.6-0.6-1.4-0.9-2.3-0.9c-0.9,0-1.7,0.3-2.3,1l-1-1c0.6-0.6,1-1.4,1-2.3
		c0-0.9-0.3-1.6-0.9-2.2l-2.3-2.3c-0.6-0.6-1.4-0.9-2.3-0.9c-0.9,0-1.6,0.3-2.2,0.9l-1.6,1.6c-0.6,0.6-0.9,1.4-0.9,2.2
		c0,0.9,0.3,1.6,0.9,2.3l2.3,2.3c0.6,0.6,1.4,0.9,2.3,0.9c0.9,0,1.7-0.3,2.3-1l1,1c-0.6,0.6-1,1.4-1,2.3c0,0.9,0.3,1.6,0.9,2.2
		l2.3,2.3c0.6,0.6,1.4,0.9,2.3,0.9c0.9,0,1.6-0.3,2.2-0.9l1.6-1.6c0.6-0.6,0.9-1.4,0.9-2.2C148.8,168.2,148.5,167.4,147.9,166.8z
		 M138.5,162.1c0,0-0.1-0.1-0.2-0.2c-0.1-0.1-0.2-0.2-0.2-0.2c0,0-0.1-0.1-0.2-0.2c-0.1-0.1-0.2-0.1-0.3-0.1c-0.1,0-0.2,0-0.3,0
		c-0.3,0-0.5,0.1-0.8,0.3c-0.2,0.2-0.3,0.5-0.3,0.8c0,0.1,0,0.2,0,0.3c0,0.1,0.1,0.2,0.1,0.3c0.1,0.1,0.1,0.2,0.2,0.2
		c0,0,0.1,0.1,0.2,0.2c0.1,0.1,0.2,0.2,0.2,0.2c-0.2,0.2-0.5,0.3-0.8,0.3c-0.3,0-0.6-0.1-0.8-0.3l-2.3-2.3c-0.2-0.2-0.3-0.5-0.3-0.8
		c0-0.3,0.1-0.5,0.3-0.7l1.6-1.6c0.2-0.2,0.5-0.3,0.8-0.3c0.3,0,0.5,0.1,0.8,0.3l2.3,2.3c0.2,0.2,0.3,0.5,0.3,0.8
		C138.9,161.6,138.8,161.8,138.5,162.1z M146.3,169.8l-1.6,1.6c-0.2,0.2-0.5,0.3-0.8,0.3c-0.3,0-0.6-0.1-0.8-0.3l-2.3-2.3
		c-0.2-0.2-0.3-0.5-0.3-0.8c0-0.3,0.1-0.6,0.4-0.8c0,0,0.1,0.1,0.2,0.2c0.1,0.1,0.2,0.2,0.2,0.2c0,0,0.1,0.1,0.2,0.2
		c0.1,0.1,0.2,0.1,0.3,0.1c0.1,0,0.2,0,0.3,0c0.3,0,0.5-0.1,0.8-0.3c0.2-0.2,0.3-0.5,0.3-0.8c0-0.1,0-0.2,0-0.3
		c0-0.1-0.1-0.2-0.1-0.3c-0.1-0.1-0.1-0.2-0.2-0.2c0,0-0.1-0.1-0.2-0.2c-0.1-0.1-0.2-0.2-0.2-0.2c0.2-0.2,0.5-0.4,0.8-0.4
		c0.3,0,0.5,0.1,0.8,0.3l2.3,2.3c0.2,0.2,0.3,0.5,0.3,0.8C146.7,169.3,146.6,169.6,146.3,169.8z"/>
</g>
<path class="st27" d="M46.4,216.9h-5.7c-0.9,0-1.7-0.6-2-1.4l-3.1-8.8l-0.4-1.1l0.1-5.4l3.5-4.8l1,2.9L46.4,216.9z"/>
<path class="st28" d="M38.9,195.4l-3.6,10.2l-3.5,10c-0.3,0.8-1.1,1.4-2,1.4h-5.7l7.6-21.5H38.9z"/>
<g>
	<polygon class="st29" points="92.4,195.2 92.4,197.1 102,197.1 102,216.3 92.4,216.3 92.4,218.2 103.9,218.2 103.9,195.2 	"/>
	<polygon class="st30" points="82.8,216.3 82.8,197.1 92.4,197.1 92.4,195.2 80.9,195.2 80.9,218.2 92.4,218.2 92.4,216.3 	"/>
	<path class="st30" d="M90.8,214l2.5-5.5h1.1v5.5h1.6v-14.6h-2.7c-1.7,0-3.8,1.8-3.8,4.8c0,3,2.6,4.2,2.6,4.2l-3.1,5.6H90.8z
		 M91.8,206.5c-0.4-0.5-0.7-1.3-0.7-2.6c0-2.9,1.7-3.3,1.9-3.3c0,0,0,0,0,0h1.3v6.6h-1C92.7,207.3,92.1,207,91.8,206.5z"/>
</g>
<path class="st31" d="M151.2,194.6h-17.1c-1.7,0-3.2,1.4-3.2,3.2v17.1c0,1.7,1.4,3.2,3.2,3.2h8.4l0-8.4h-2.2c-0.3,0-0.5-0.2-0.5-0.5
	l0-2.7c0-0.3,0.2-0.5,0.5-0.5h2.2v-2.6c0-3,1.8-4.7,4.5-4.7h2.2c0.3,0,0.5,0.2,0.5,0.5v2.3c0,0.3-0.2,0.5-0.5,0.5l-1.4,0
	c-1.5,0-1.8,0.7-1.8,1.7v2.3h3.2c0.3,0,0.5,0.3,0.5,0.6l-0.3,2.7c0,0.3-0.2,0.5-0.5,0.5h-2.9l0,8.4h5c1.7,0,3.2-1.4,3.2-3.2v-17.1
	C154.3,196,152.9,194.6,151.2,194.6z"/>
<g id="XMLID_13_">
	
		<linearGradient id="XMLID_2_" gradientUnits="userSpaceOnUse" x1="189.9115" y1="456.9804" x2="189.9115" y2="433.6559" gradientTransform="matrix(1 0 0 1 0 -238)">
		<stop  offset="0" style="stop-color:#E19C3D"/>
		<stop  offset="0.3" style="stop-color:#C74D4E"/>
		<stop  offset="0.6" style="stop-color:#C21C76"/>
		<stop  offset="1" style="stop-color:#6A479C"/>
	</linearGradient>
	<path id="XMLID_17_" class="st32" d="M194.7,195.5h-9.5c-3.9,0-7,3.2-7,7v9.5c0,3.9,3.2,7,7,7h9.5c3.9,0,7-3.2,7-7v-9.5
		C201.7,198.6,198.5,195.5,194.7,195.5z M199.3,212c0,2.6-2.1,4.7-4.7,4.7h-9.5c-2.6,0-4.7-2.1-4.7-4.7v-9.5c0-2.6,2.1-4.7,4.7-4.7
		h9.5c2.6,0,4.7,2.1,4.7,4.7V212L199.3,212z"/>
	
		<linearGradient id="XMLID_3_" gradientUnits="userSpaceOnUse" x1="189.9115" y1="456.9804" x2="189.9115" y2="433.6559" gradientTransform="matrix(1 0 0 1 0 -238)">
		<stop  offset="0" style="stop-color:#E19C3D"/>
		<stop  offset="0.3" style="stop-color:#C74D4E"/>
		<stop  offset="0.6" style="stop-color:#C21C76"/>
		<stop  offset="1" style="stop-color:#6A479C"/>
	</linearGradient>
	<path id="XMLID_81_" class="st33" d="M189.9,201.2c-3.4,0-6.1,2.7-6.1,6.1s2.7,6.1,6.1,6.1c3.4,0,6.1-2.7,6.1-6.1
		C196,203.9,193.3,201.2,189.9,201.2z M189.9,211c-2.1,0-3.7-1.7-3.7-3.7s1.7-3.7,3.7-3.7c2.1,0,3.7,1.7,3.7,3.7
		C193.6,209.3,192,211,189.9,211z"/>
	
		<linearGradient id="XMLID_4_" gradientUnits="userSpaceOnUse" x1="196.0208" y1="456.9804" x2="196.0208" y2="433.6559" gradientTransform="matrix(1 0 0 1 0 -238)">
		<stop  offset="0" style="stop-color:#E19C3D"/>
		<stop  offset="0.3" style="stop-color:#C74D4E"/>
		<stop  offset="0.6" style="stop-color:#C21C76"/>
		<stop  offset="1" style="stop-color:#6A479C"/>
	</linearGradient>
	<circle id="XMLID_83_" class="st34" cx="196" cy="201.2" r="1.5"/>
</g>
<circle class="st35" cx="239.5" cy="207.3" r="11.5"/>
<path class="st36" d="M247.7,199.1c4.5,4.5,4.5,11.8,0,16.3c-4.5,4.5-11.8,4.5-16.3,0L247.7,199.1z"/>
<path class="st37" d="M250.8,209.6l-5.7-5.7l-6.7,0.8l-4.1,6.3l7.6,7.6C246.4,217.6,249.9,214.1,250.8,209.6z"/>
<path class="st6" d="M245.5,205c0-1-0.8-1.8-1.8-1.8h-8.2c-1,0-1.8,0.8-1.8,1.8v4.7c0,1,0.8,1.8,1.8,1.8h8.2c1,0,1.8-0.8,1.8-1.8
	L245.5,205L245.5,205z M238.5,209.4V205l3.3,2.2L238.5,209.4z"/>
<path class="st38" d="M40.5,241.7v-4.9h-9.8v4.9c0,2.3,1.5,4.2,3.6,4.7c-2.1,0.6-3.6,2.5-3.6,4.7v4.9h9.8v-4.9
	c0-2.3-1.5-4.2-3.6-4.7C38.9,245.9,40.5,244,40.5,241.7z"/>
<g>
	<path class="st39" d="M40.8,241.7v-4.9h-0.6v4.9c0,2.1-1.4,3.9-3.4,4.4c-0.1,0-0.2,0.2-0.2,0.3c0,0.1,0.1,0.3,0.2,0.3
		c2,0.5,3.4,2.4,3.4,4.4v4.9h0.6v-4.9c0-2.1-1.2-3.9-3-4.7C39.6,245.6,40.8,243.8,40.8,241.7z"/>
	<path class="st39" d="M34.3,246.2c-2-0.5-3.4-2.4-3.4-4.4v-4.9h-0.6v4.9c0,2.1,1.2,3.9,3,4.7c-1.8,0.9-3,2.7-3,4.7v4.9h0.6v-4.9
		c0-2.1,1.4-3.9,3.4-4.4c0.1,0,0.2-0.2,0.2-0.3C34.6,246.3,34.5,246.2,34.3,246.2z"/>
</g>
<g>
	<path class="st40" d="M40.9,256.4H30.2c-0.2,0-0.3-0.1-0.3-0.3c0-0.2,0.1-0.3,0.3-0.3h10.7c0.2,0,0.3,0.1,0.3,0.3
		C41.2,256.3,41.1,256.4,40.9,256.4z"/>
	<path class="st40" d="M40.9,237.1H30.2c-0.2,0-0.3-0.1-0.3-0.3s0.1-0.3,0.3-0.3h10.7c0.2,0,0.3,0.1,0.3,0.3S41.1,237.1,40.9,237.1z
		"/>
</g>
<path class="st41" d="M35.9,249.6v-4.2c0.3,0,0.5-0.1,0.6-0.1c1.2-0.3,2.2-1.3,2.5-2.4l-6.9,0c0.4,1.2,1.3,2.1,2.5,2.4
	c0.2,0,0.4,0.1,0.6,0.1v4.2c-1.9,0.2-3.3,1.7-3.3,3.6v1.6h7.3v-1.6C39.2,251.3,37.7,249.7,35.9,249.6z"/>
<circle class="st42" cx="93.3" cy="245.6" r="11.5"/>
<line class="st43" x1="93.3" y1="240.1" x2="93.3" y2="251.5"/>
<line class="st43" x1="99.1" y1="245.6" x2="87.6" y2="245.6"/>
<path class="st6" d="M243.8,240.8c-0.4-0.4-0.9-0.6-1.5-0.6h-7c-0.6,0-1.1,0.2-1.5,0.6c-0.4,0.4-0.6,0.9-0.6,1.5v7
	c0,0.6,0.2,1.1,0.6,1.5c0.4,0.4,0.9,0.6,1.5,0.6h7c0.6,0,1.1-0.2,1.5-0.6c0.4-0.4,0.6-0.9,0.6-1.5v-7
	C244.4,241.7,244.2,241.2,243.8,240.8z M242.5,246.3c0,0.1,0,0.2-0.1,0.3c-0.1,0.1-0.2,0.1-0.3,0.1h-2.3v2.3c0,0.1,0,0.2-0.1,0.3
	c-0.1,0.1-0.2,0.1-0.3,0.1h-0.9c-0.1,0-0.2,0-0.3-0.1c-0.1-0.1-0.1-0.2-0.1-0.3v-2.3h-2.3c-0.1,0-0.2,0-0.3-0.1
	c-0.1-0.1-0.1-0.2-0.1-0.3v-0.9c0-0.1,0-0.2,0.1-0.3c0.1-0.1,0.2-0.1,0.3-0.1h2.3v-2.3c0-0.1,0-0.2,0.1-0.3c0.1-0.1,0.2-0.1,0.3-0.1
	h0.9c0.1,0,0.2,0,0.3,0.1c0.1,0.1,0.1,0.2,0.1,0.3v2.3h2.3c0.1,0,0.2,0,0.3,0.1c0.1,0.1,0.1,0.2,0.1,0.3L242.5,246.3L242.5,246.3z"
	/>
<g>
	<path class="st6" d="M240.2,278.6l2.2-2.2c0.3-0.3,0.3-0.8,0-1.2l-0.3-0.3c-0.3-0.3-0.8-0.3-1.2,0l-2.2,2.2l-2.2-2.2
		c-0.3-0.3-0.8-0.3-1.2,0l-0.3,0.3c-0.3,0.3-0.3,0.8,0,1.2l2.2,2.2l-2.2,2.2c-0.3,0.3-0.3,0.8,0,1.2l0.3,0.3c0.3,0.3,0.8,0.3,1.2,0
		l2.2-2.2l2.2,2.2c0.3,0.3,0.8,0.3,1.2,0l0.3-0.3c0.3-0.3,0.3-0.8,0-1.2L240.2,278.6z"/>
</g>
<g>
	<g>
		<path class="st6" d="M195.7,280.4c-0.1-0.1-0.3-0.2-0.5-0.2h-3.1l-0.9,0.9c-0.3,0.2-0.6,0.4-0.9,0.4c-0.3,0-0.7-0.1-0.9-0.4
			l-0.9-0.9h-3.1c-0.2,0-0.3,0.1-0.5,0.2c-0.1,0.1-0.2,0.3-0.2,0.4v2.1c0,0.2,0.1,0.3,0.2,0.4c0.1,0.1,0.3,0.2,0.5,0.2h9.9
			c0.2,0,0.3-0.1,0.5-0.2c0.1-0.1,0.2-0.3,0.2-0.4v-2.1C195.9,280.7,195.9,280.6,195.7,280.4z M193.2,282.7
			c-0.1,0.1-0.2,0.1-0.3,0.1s-0.2,0-0.3-0.1c-0.1-0.1-0.1-0.2-0.1-0.3c0-0.1,0-0.2,0.1-0.3c0.1-0.1,0.2-0.1,0.3-0.1s0.2,0,0.3,0.1
			c0.1,0.1,0.1,0.2,0.1,0.3C193.3,282.5,193.3,282.6,193.2,282.7z M194.9,282.7c-0.1,0.1-0.2,0.1-0.3,0.1c-0.1,0-0.2,0-0.3-0.1
			c-0.1-0.1-0.1-0.2-0.1-0.3c0-0.1,0-0.2,0.1-0.3c0.1-0.1,0.2-0.1,0.3-0.1s0.2,0,0.3,0.1c0.1,0.1,0.1,0.2,0.1,0.3
			C195.1,282.5,195,282.6,194.9,282.7z"/>
		<path class="st6" d="M190,280.5c0.1,0.1,0.2,0.1,0.3,0.1c0.1,0,0.2,0,0.3-0.1l3-3c0.1-0.1,0.2-0.3,0.1-0.5
			c-0.1-0.2-0.2-0.3-0.4-0.3h-1.7v-3c0-0.1,0-0.2-0.1-0.3c-0.1-0.1-0.2-0.1-0.3-0.1h-1.7c-0.1,0-0.2,0-0.3,0.1
			c-0.1,0.1-0.1,0.2-0.1,0.3v3h-1.7c-0.2,0-0.3,0.1-0.4,0.3c-0.1,0.2,0,0.3,0.1,0.5L190,280.5z"/>
	</g>
</g>
<g>
	<g>
		<path class="st6" d="M141.3,274.2h-3.6c-0.1,0-0.2,0-0.3,0.1c-0.1,0.1-0.1,0.2-0.1,0.3v10c0,0.1,0,0.2,0.1,0.3
			c0.1,0.1,0.2,0.1,0.3,0.1h3.6c0.1,0,0.2,0,0.3-0.1c0.1-0.1,0.1-0.2,0.1-0.3v-10c0-0.1,0-0.2-0.1-0.3
			C141.5,274.2,141.4,274.2,141.3,274.2z"/>
		<path class="st6" d="M148,274.3c-0.1-0.1-0.2-0.1-0.3-0.1H144c-0.1,0-0.2,0-0.3,0.1c-0.1,0.1-0.1,0.2-0.1,0.3v10
			c0,0.1,0,0.2,0.1,0.3c0.1,0.1,0.2,0.1,0.3,0.1h3.6c0.1,0,0.2,0,0.3-0.1c0.1-0.1,0.1-0.2,0.1-0.3v-10
			C148.1,274.5,148.1,274.4,148,274.3z"/>
	</g>
</g>
<path class="st6" d="M97.8,273.3H91V286h9.9v-9.6L97.8,273.3z M93.3,276.3h2.1c0.1,0,0.2,0.1,0.2,0.2s-0.1,0.2-0.2,0.2h-2.1
	c-0.1,0-0.2-0.1-0.2-0.2S93.2,276.3,93.3,276.3z M98.6,283.5h-5.3c-0.1,0-0.2-0.1-0.2-0.2s0.1-0.2,0.2-0.2h5.3
	c0.1,0,0.2,0.1,0.2,0.2S98.7,283.5,98.6,283.5z M98.6,281.8h-5.3c-0.1,0-0.2-0.1-0.2-0.2s0.1-0.2,0.2-0.2h5.3c0.1,0,0.2,0.1,0.2,0.2
	S98.7,281.8,98.6,281.8z M98.6,280.1h-5.3c-0.1,0-0.2-0.1-0.2-0.2s0.1-0.2,0.2-0.2h5.3c0.1,0,0.2,0.1,0.2,0.2S98.7,280.1,98.6,280.1
	z M98.6,278.4h-5.3c-0.1,0-0.2-0.1-0.2-0.2c0-0.1,0.1-0.2,0.2-0.2h5.3c0.1,0,0.2,0.1,0.2,0.2C98.8,278.3,98.7,278.4,98.6,278.4z
	 M97.5,276.7v-3l3,3H97.5z"/>
<g>
	<path class="st44" d="M35.3,281l-4.5,4.5c-0.3,0.3-0.8,0.3-1,0c-0.3-0.3-0.3-0.8,0-1l4-4l-4-4c-0.3-0.3-0.3-0.8,0-1
		c0.3-0.3,0.8-0.3,1,0l4.5,4.5c0.1,0.1,0.2,0.3,0.2,0.5C35.5,280.7,35.4,280.9,35.3,281z"/>
</g>
<g>
	<path class="st44" d="M60.9,279.5l4.5-4.5c0.3-0.3,0.8-0.3,1,0c0.3,0.3,0.3,0.8,0,1l-4,4l4,4c0.3,0.3,0.3,0.8,0,1
		c-0.3,0.3-0.8,0.3-1,0l-4.5-4.5c-0.1-0.1-0.2-0.3-0.2-0.5C60.7,279.9,60.8,279.7,60.9,279.5z"/>
</g>
</svg>
