<?xml version="1.0" encoding="utf-8"?>
<!-- Generator: Adobe Illustrator 20.1.0, SVG Export Plug-In . SVG Version: 6.00 Build 0)  -->
<svg version="1.1" id="Шар_1" xmlns="http://www.w3.org/2000/svg" xmlns:xlink="http://www.w3.org/1999/xlink" x="0px" y="0px"
	 viewBox="0 0 50 50" style="enable-background:new 0 0 50 50;" xml:space="preserve">
<style type="text/css">
	.st0{fill:none;}
	.st1{fill:#D9D9D8;}
	.st2{fill:#FFFFFF;}
</style>
<g>
	<rect x="-8.6" y="-15.8" class="st0" width="67" height="82.8"/>
	<g>
		<path class="st1" d="M47.8,50.4H2.1c-1.1,0-2-0.9-2-2V2.7c0-1.1,0.9-2,2-2h45.7c1.1,0,2,0.9,2,2v45.7
			C49.8,49.5,48.9,50.4,47.8,50.4z"/>
		<g>
			<path class="st2" d="M24.9,38.2c-3.4,0-6.7-1.4-9-3.9l3.7-3.7c0.6-0.6,0.2-1.5-0.6-1.5H8c-0.5,0-0.9,0.4-0.9,0.9v11
				c0,0.8,0.9,1.2,1.5,0.6l3.6-3.6c3.3,3.4,7.9,5.4,12.8,5.4c9.8,0,17.8-8,17.8-17.8h-5.3C37.5,32.5,31.9,38.2,24.9,38.2z"/>
			<path class="st2" d="M41.3,9.6l-3.6,3.6c-3.3-3.4-7.9-5.4-12.8-5.4c-9.8,0-17.8,8-17.8,17.8h5.3C12.4,18.7,18,13,24.9,13
				c3.4,0,6.7,1.4,9,3.9l-3.7,3.7c-0.6,0.6-0.2,1.5,0.6,1.5h11c0.5,0,0.9-0.4,0.9-0.9v-11C42.8,9.4,41.8,9,41.3,9.6z"/>
		</g>
	</g>
</g>
</svg>
