<?xml version="1.0" encoding="utf-8"?>
<!-- Generator: Adobe Illustrator 20.1.0, SVG Export Plug-In . SVG Version: 6.00 Build 0)  -->
<svg version="1.1" id="Шар_1" xmlns="http://www.w3.org/2000/svg" xmlns:xlink="http://www.w3.org/1999/xlink" x="0px" y="0px"
	 viewBox="0 0 50 50" style="enable-background:new 0 0 50 50;" xml:space="preserve">
<style type="text/css">
	.st0{fill:none;}
	.st1{fill:#FFFFFF;}
</style>
<g>
	<g>
		<path class="st0" d="M57.5,59.4H-7.1c-1.1,0-2-0.9-2-2V-7.2c0-1.1,0.9-2,2-2h64.6c1.1,0,2,0.9,2,2v64.6
			C59.5,58.5,58.6,59.4,57.5,59.4z"/>
		<g>
			<path class="st1" d="M25.2,42.5c-4.8,0-9.2-2-12.5-5.3l5.2-5.2c0.8-0.8,0.2-2.1-0.9-2.1H1.8c-0.7,0-1.2,0.5-1.2,1.2v15.2
				c0,1.1,1.3,1.6,2.1,0.9l4.9-4.9c4.6,4.7,10.9,7.5,17.6,7.5c13.6,0,24.6-11,24.6-24.6h-7.3C42.6,34.7,34.8,42.5,25.2,42.5z"/>
			<path class="st1" d="M47.7,3l-4.9,4.9c-4.6-4.7-10.9-7.5-17.6-7.5c-13.6,0-24.6,11-24.6,24.6h7.3c0-9.6,7.8-17.4,17.4-17.4
				c4.8,0,9.3,2,12.5,5.3l-5.2,5.2c-0.8,0.8-0.2,2.1,0.9,2.1h15.2c0.7,0,1.2-0.5,1.2-1.2V3.8C49.8,2.8,48.5,2.2,47.7,3z"/>
		</g>
	</g>
</g>
</svg>
