<?xml version="1.0" encoding="utf-8"?>
<!-- Generator: Adobe Illustrator 20.1.0, SVG Export Plug-In . SVG Version: 6.00 Build 0)  -->
<svg version="1.1" id="Шар_1" xmlns="http://www.w3.org/2000/svg" xmlns:xlink="http://www.w3.org/1999/xlink" x="0px" y="0px"
	 viewBox="0 0 17.2 17.2" style="enable-background:new 0 0 17.2 17.2;" xml:space="preserve">
<style type="text/css">
	.st0{fill:none;}
	.st1{fill:#4579BD;}
</style>
<g>
	<rect x="-7.6" y="-12.4" class="st0" width="32.4" height="42"/>
	<g>
		<path class="st0" d="M18.6,20.6h-20c-1.1,0-2-0.9-2-2v-20c0-1.1,0.9-2,2-2h20c1.1,0,2,0.9,2,2v20C20.6,19.7,19.7,20.6,18.6,20.6z"
			/>
		<g>
			<path class="st1" d="M8.6,14.7c-1.7,0-3.2-0.7-4.4-1.9L6,11c0.3-0.3,0.1-0.7-0.3-0.7H0.4c-0.2,0-0.4,0.2-0.4,0.4V16
				c0,0.4,0.5,0.6,0.7,0.3l1.7-1.7c1.6,1.6,3.8,2.6,6.2,2.6c4.7,0,8.6-3.9,8.6-8.6h-2.5C14.7,11.9,12,14.7,8.6,14.7z"/>
			<path class="st1" d="M16.5,0.9l-1.7,1.7C13.2,1,11,0,8.6,0C3.9,0,0,3.9,0,8.6h2.5c0-3.3,2.7-6.1,6.1-6.1c1.7,0,3.2,0.7,4.4,1.9
				l-1.8,1.8c-0.3,0.3-0.1,0.7,0.3,0.7h5.3c0.2,0,0.4-0.2,0.4-0.4V1.2C17.2,0.8,16.8,0.6,16.5,0.9z"/>
		</g>
	</g>
</g>
</svg>
