<?xml version="1.0" encoding="utf-8"?>
<!-- Generator: Adobe Illustrator 20.1.0, SVG Export Plug-In . SVG Version: 6.00 Build 0)  -->
<svg version="1.1" id="Шар_1" xmlns="http://www.w3.org/2000/svg" xmlns:xlink="http://www.w3.org/1999/xlink" x="0px" y="0px"
	 viewBox="0 0 50 50" style="enable-background:new 0 0 50 50;" xml:space="preserve">
<style type="text/css">
	.st0{fill:none;}
	.st1{fill:#FFD654;}
</style>
<g>
	<rect x="-19.9" y="-31" class="st0" width="90.2" height="111.4"/>
	<g>
		<path class="st0" d="M0.1,47.8V1.6c0-1.1,0.9-2,2-2h46.1c1.1,0,2,0.9,2,2v46.1c0,1.1-0.9,2-2,2H2.1C1,49.8,0.1,48.9,0.1,47.8z"/>
		<g>
			<path class="st1" d="M12.5,24.7c0-3.5,1.4-6.8,3.9-9.1l3.8,3.8c0.6,0.6,1.5,0.2,1.5-0.6V7.6c0-0.5-0.4-0.9-0.9-0.9H9.6
				c-0.8,0-1.2,1-0.6,1.5l3.6,3.6c-3.4,3.3-5.4,8-5.4,12.9c0,9.9,8.1,18,18,18v-5.3C18.2,37.4,12.5,31.7,12.5,24.7z"/>
			<path class="st1" d="M41.3,41.2l-3.6-3.6c3.4-3.3,5.4-8,5.4-12.9c0-9.9-8.1-18-18-18V12c7,0,12.7,5.7,12.7,12.7
				c0,3.5-1.4,6.8-3.9,9.1l-3.8-3.8c-0.6-0.6-1.5-0.2-1.5,0.6v11.1c0,0.5,0.4,0.9,0.9,0.9h11.1C41.5,42.7,41.9,41.7,41.3,41.2z"/>
		</g>
	</g>
</g>
</svg>
