<?xml version="1.0" encoding="utf-8"?>
<!-- Generator: Adobe Illustrator 20.1.0, SVG Export Plug-In . SVG Version: 6.00 Build 0)  -->
<svg version="1.1" id="Шар_1" xmlns="http://www.w3.org/2000/svg" xmlns:xlink="http://www.w3.org/1999/xlink" x="0px" y="0px"
	 viewBox="0 0 50 50" style="enable-background:new 0 0 50 50;" xml:space="preserve">
<style type="text/css">
	.st0{fill:none;}
	.st1{fill:#3070A8;}
	.st2{fill:#FFFFFF;}
</style>
<g>
	<rect x="-8" y="-16" class="st0" width="66.4" height="82.8"/>
	<g>
		<path class="st1" d="M47.8,50.2H2.6c-1.1,0-2-0.9-2-2V2.5c0-1.1,0.9-2,2-2h45.2c1.1,0,2,0.9,2,2v45.7
			C49.8,49.3,48.9,50.2,47.8,50.2z"/>
		<g>
			<path class="st2" d="M25.2,37.9c-3.4,0-6.6-1.4-9-3.9l3.7-3.7c0.5-0.6,0.2-1.5-0.6-1.5H8.4c-0.5,0-0.9,0.4-0.9,0.9v11
				c0,0.8,0.9,1.2,1.5,0.6l3.5-3.6c3.3,3.4,7.8,5.4,12.6,5.4c9.7,0,17.7-8,17.7-17.8h-5.2C37.7,32.3,32.1,37.9,25.2,37.9z"/>
			<path class="st2" d="M41.4,9.4L37.9,13C34.6,9.6,30,7.6,25.2,7.6c-9.7,0-17.7,8-17.7,17.8h5.2c0-6.9,5.6-12.6,12.4-12.6
				c3.4,0,6.6,1.4,9,3.9l-3.7,3.7c-0.5,0.6-0.2,1.5,0.6,1.5H42c0.5,0,0.9-0.4,0.9-0.9V10C42.9,9.2,41.9,8.8,41.4,9.4z"/>
		</g>
	</g>
</g>
</svg>
