<?xml version="1.0" encoding="utf-8"?>
<!-- Generator: Adobe Illustrator 20.1.0, SVG Export Plug-In . SVG Version: 6.00 Build 0)  -->
<svg version="1.1" id="Шар_1" xmlns="http://www.w3.org/2000/svg" xmlns:xlink="http://www.w3.org/1999/xlink" x="0px" y="0px"
	 viewBox="0 0 23 23" style="enable-background:new 0 0 23 23;" xml:space="preserve">
<style type="text/css">
	.st0{fill:#AC2824;}
	.st1{fill:#CB3328;}
</style>
<g>
	<polygon class="st0" points="11.5,0 11.5,1.9 21.1,1.9 21.1,21.1 11.5,21.1 11.5,23 23,23 23,0 	"/>
	<polygon class="st1" points="1.9,21.1 1.9,1.9 11.5,1.9 11.5,0 0,0 0,23 11.5,23 11.5,21.1 	"/>
	<path class="st1" d="M9.9,18.8l2.5-5.5h1.1v5.5h1.6V4.2h-2.7C10.7,4.2,8.6,6,8.6,9s2.6,4.2,2.6,4.2l-3.1,5.6H9.9z M10.9,11.3
		c-0.4-0.5-0.7-1.3-0.7-2.6c0-2.9,1.7-3.3,1.9-3.3l0,0h1.3V12h-1C11.8,12.1,11.2,11.8,10.9,11.3z"/>
</g>
</svg>
