<?xml version="1.0" encoding="utf-8"?>
<!-- Generator: Adobe Illustrator 20.1.0, SVG Export Plug-In . SVG Version: 6.00 Build 0)  -->
<svg version="1.1" id="Шар_1" xmlns="http://www.w3.org/2000/svg" xmlns:xlink="http://www.w3.org/1999/xlink" x="0px" y="0px"
	 viewBox="0 0 23 23" style="enable-background:new 0 0 23 23;" xml:space="preserve">
<style type="text/css">
	.st0{fill:#D32929;}
	.st1{fill:#BC2031;}
	.st2{fill:#FFFFFF;}
</style>
<circle class="st0" cx="11.5" cy="11.5" r="11.5"/>
<path class="st1" d="M22.8,13.8l-5.7-5.7l-6.7,0.8l-4.1,6.3l7.6,7.6C18.4,21.8,21.9,18.3,22.8,13.8z"/>
<path class="st2" d="M17.5,9.2c0-1-0.8-1.8-1.8-1.8H7.5c-1,0-1.8,0.8-1.8,1.8v4.7c0,1,0.8,1.8,1.8,1.8h8.2c1,0,1.8-0.8,1.8-1.8V9.2
	L17.5,9.2z M10.5,13.6V9.2l3.3,2.2L10.5,13.6z"/>
</svg>
